<?xml version="1.0" ?><svg enable-background="new 0 0 32 32" id="Outline" version="1.1" viewBox="0 0 32 32" xml:space="preserve" xmlns="http://www.w3.org/2000/svg" xmlns:xlink="http://www.w3.org/1999/xlink"><title/><desc/><g><path d="M28,20.111V5c0-2.757-2.243-5-5-5s-5,2.243-5,5v2.079C16.795,6.38,15.427,6,14,6c-4.411,0-8,3.589-8,8s3.589,8,8,8   c1.037,0,2.045-0.199,2.981-0.575c-0.897,1.494-1.204,3.289-0.82,5.091c0.564,2.649,2.727,4.794,5.381,5.335   c0.482,0.099,0.966,0.146,1.445,0.146c1.612,0,3.174-0.545,4.435-1.575C29.061,29.086,30,27.109,30,25   C30,23.162,29.276,21.405,28,20.111z M8,14c0-3.309,2.691-6,6-6c1.49,0,2.898,0.548,4,1.537v8.925C16.898,19.452,15.49,20,14,20   C10.691,20,8,17.309,8,14z M26.158,28.874c-1.169,0.956-2.706,1.323-4.216,1.019c-1.887-0.385-3.424-1.909-3.825-3.793   c-0.387-1.812,0.191-3.611,1.545-4.812C19.877,21.099,20,20.826,20,20.54V5c0-1.654,1.346-3,3-3s3,1.346,3,3v15.54   c0,0.286,0.123,0.559,0.337,0.748C27.394,22.225,28,23.578,28,25C28,26.506,27.329,27.918,26.158,28.874z"/><path d="M24,22.184V6h-2v16.184c-1.161,0.414-2,1.514-2,2.816c0,1.654,1.346,3,3,3s3-1.346,3-3C26,23.698,25.161,22.598,24,22.184z    M23,26c-0.551,0-1-0.448-1-1s0.449-1,1-1s1,0.448,1,1S23.551,26,23,26z"/><rect height="4" width="2" x="13"/><rect height="4.001" transform="matrix(0.7072 -0.707 0.707 0.7072 -2.284 5.5137)" width="2" x="4.515" y="3.514"/><rect height="2" transform="matrix(0.7071 -0.7071 0.7071 0.7071 -14.2848 10.4852)" width="4.001" x="3.514" y="21.486"/><rect height="2" width="4" y="13"/><rect height="4" width="2" x="13" y="24"/></g></svg>