%TF.GenerationSoftware,KiCad,Pcbnew,8.0.8-8.0.8-0~ubuntu24.10.1*%
%TF.CreationDate,2025-03-16T16:58:13+01:00*%
%TF.ProjectId,nimbus_pcb_2,6e696d62-7573-45f7-9063-625f322e6b69,rev?*%
%TF.SameCoordinates,Original*%
%TF.FileFunction,Copper,L1,Top*%
%TF.FilePolarity,Positive*%
%FSLAX46Y46*%
G04 Gerber Fmt 4.6, Leading zero omitted, Abs format (unit mm)*
G04 Created by KiCad (PCBNEW 8.0.8-8.0.8-0~ubuntu24.10.1) date 2025-03-16 16:58:13*
%MOMM*%
%LPD*%
G01*
G04 APERTURE LIST*
%TA.AperFunction,ComponentPad*%
%ADD10C,2.000000*%
%TD*%
%TA.AperFunction,ComponentPad*%
%ADD11C,1.600000*%
%TD*%
%TA.AperFunction,ComponentPad*%
%ADD12O,1.600000X1.600000*%
%TD*%
%TA.AperFunction,ComponentPad*%
%ADD13C,1.524000*%
%TD*%
%TA.AperFunction,Conductor*%
%ADD14C,0.400000*%
%TD*%
%TA.AperFunction,Conductor*%
%ADD15C,0.200000*%
%TD*%
G04 APERTURE END LIST*
D10*
%TO.P,U5,1,PIN*%
%TO.N,Net-(U5-PIN)*%
X152400000Y-114300000D03*
%TO.P,U5,2,VCC*%
%TO.N,+3.3V*%
X154940000Y-114300000D03*
%TO.P,U5,3,GND*%
%TO.N,GND*%
X157480000Y-114300000D03*
%TD*%
%TO.P,U4,1,PIN*%
%TO.N,Net-(U4-PIN)*%
X152400000Y-111760000D03*
%TO.P,U4,2,VCC*%
%TO.N,+3.3V*%
X154940000Y-111760000D03*
%TO.P,U4,3,GND*%
%TO.N,GND*%
X157480000Y-111760000D03*
%TD*%
%TO.P,U3,1,PIN*%
%TO.N,Net-(U3-PIN)*%
X152400000Y-109220000D03*
%TO.P,U3,2,VCC*%
%TO.N,+3.3V*%
X154940000Y-109220000D03*
%TO.P,U3,3,GND*%
%TO.N,GND*%
X157480000Y-109220000D03*
%TD*%
%TO.P,U2,1,PIN*%
%TO.N,Net-(U2-PIN)*%
X152400000Y-106680000D03*
%TO.P,U2,2,VCC*%
%TO.N,+3.3V*%
X154940000Y-106680000D03*
%TO.P,U2,3,GND*%
%TO.N,GND*%
X157480000Y-106680000D03*
%TD*%
D11*
%TO.P,R2,1*%
%TO.N,Net-(esp32s1-16)*%
X114300000Y-125730000D03*
D12*
%TO.P,R2,2*%
%TO.N,BATT*%
X99060000Y-125730000D03*
%TD*%
D10*
%TO.P,Solar_charger1,1,OUT-*%
%TO.N,GND*%
X75360000Y-130940000D03*
%TO.P,Solar_charger1,2,BAT-*%
X71860000Y-130940000D03*
%TO.P,Solar_charger1,3,BAT+*%
%TO.N,OUT_CHARGER*%
X86360000Y-130940000D03*
%TO.P,Solar_charger1,4,OUT+*%
%TO.N,BATT*%
X82860000Y-130940000D03*
%TO.P,Solar_charger1,5,SOLR-*%
%TO.N,GND*%
X71860000Y-108440000D03*
%TO.P,Solar_charger1,6,SOLR+*%
%TO.N,SOL*%
X86360000Y-108440000D03*
%TD*%
%TO.P,battery1,1,4.2V*%
%TO.N,BATT*%
X72390000Y-152490000D03*
%TO.P,battery1,2,GND*%
%TO.N,GND*%
X72390000Y-142330000D03*
%TD*%
%TO.P,solar_panel1,1,solar+*%
%TO.N,SOL*%
X111760000Y-109220000D03*
%TO.P,solar_panel1,2,GND*%
%TO.N,GND*%
X114300000Y-109220000D03*
%TD*%
%TO.P,i2c_breakout_1,1,VCC*%
%TO.N,+3.3V*%
X149860000Y-124460000D03*
%TO.P,i2c_breakout_1,2,GND*%
%TO.N,GND*%
X152400000Y-124460000D03*
%TO.P,i2c_breakout_1,3,SCL*%
%TO.N,Net-(i2c_breakout_1-SCL)*%
X154940000Y-124460000D03*
%TO.P,i2c_breakout_1,4,SDA*%
%TO.N,Net-(esp32s1-9)*%
X157480000Y-124460000D03*
%TD*%
D13*
%TO.P,Reset1,1,RST*%
%TO.N,Net-(Reset1-RST)*%
X110490000Y-102870000D03*
%TO.P,Reset1,2,GND*%
%TO.N,GND*%
X115570000Y-102870000D03*
%TD*%
D11*
%TO.P,R4,1*%
%TO.N,Net-(esp32s1-17)*%
X114300000Y-115570000D03*
D12*
%TO.P,R4,2*%
%TO.N,SOL*%
X99060000Y-115570000D03*
%TD*%
D11*
%TO.P,R3,1*%
%TO.N,GND*%
X99060000Y-120320000D03*
D12*
%TO.P,R3,2*%
%TO.N,Net-(esp32s1-17)*%
X114300000Y-120320000D03*
%TD*%
D10*
%TO.P,i2c_breakout_2,1,VCC*%
%TO.N,+3.3V*%
X149860000Y-128270000D03*
%TO.P,i2c_breakout_2,2,GND*%
%TO.N,GND*%
X152400000Y-128270000D03*
%TO.P,i2c_breakout_2,3,SCL*%
%TO.N,Net-(i2c_breakout_1-SCL)*%
X154940000Y-128270000D03*
%TO.P,i2c_breakout_2,4,SDA*%
%TO.N,Net-(esp32s1-9)*%
X157480000Y-128270000D03*
%TD*%
D11*
%TO.P,C1,1*%
%TO.N,+3.3V*%
X92710000Y-130830000D03*
%TO.P,C1,2*%
%TO.N,GND*%
X92710000Y-125830000D03*
%TD*%
D10*
%TO.P,esp32s2,1,3V3*%
%TO.N,+3.3V*%
X143510000Y-105310000D03*
%TO.P,esp32s2,2,14*%
%TO.N,unconnected-(esp32s1-14-Pad2)*%
X140970000Y-105310000D03*
%TO.P,esp32s2,3,12*%
%TO.N,Net-(U1-PIN)*%
X143510000Y-107850000D03*
%TO.P,esp32s2,4,13*%
%TO.N,unconnected-(esp32s1-13-Pad4)*%
X140970000Y-107850000D03*
%TO.P,esp32s2,5,11*%
%TO.N,Net-(U2-PIN)*%
X143510000Y-110390000D03*
%TO.P,esp32s2,6,10*%
%TO.N,unconnected-(esp32s1-10-Pad6)*%
X140970000Y-110390000D03*
%TO.P,esp32s2,7,9*%
%TO.N,Net-(esp32s1-9)*%
X143510000Y-112930000D03*
%TO.P,esp32s2,8,8*%
%TO.N,Net-(i2c_breakout_1-SCL)*%
X140970000Y-112930000D03*
%TO.P,esp32s2,9,7*%
%TO.N,Net-(U3-PIN)*%
X143510000Y-115470000D03*
%TO.P,esp32s2,10,6*%
%TO.N,unconnected-(esp32s1-6-Pad10)*%
X140970000Y-115470000D03*
%TO.P,esp32s2,11,5*%
%TO.N,Net-(U4-PIN)*%
X143510000Y-118010000D03*
%TO.P,esp32s2,12,4*%
%TO.N,Net-(Reset1-RST)*%
X140970000Y-118010000D03*
%TO.P,esp32s2,13,3*%
%TO.N,Net-(U5-PIN)*%
X143510000Y-120550000D03*
%TO.P,esp32s2,14,2*%
%TO.N,unconnected-(esp32s1-2-Pad14)*%
X140970000Y-120550000D03*
%TO.P,esp32s2,15,EN*%
%TO.N,unconnected-(esp32s1-EN-Pad15)*%
X143510000Y-123090000D03*
%TO.P,esp32s2,16,1*%
%TO.N,unconnected-(esp32s1-1-Pad16)*%
X140970000Y-123090000D03*
%TO.P,esp32s2,17,15*%
%TO.N,unconnected-(esp32s1-15-Pad17)*%
X123190000Y-105310000D03*
%TO.P,esp32s2,18,VBUS*%
%TO.N,unconnected-(esp32s1-VBUS-Pad18)*%
X120650000Y-105310000D03*
%TO.P,esp32s2,19,GND*%
%TO.N,GND*%
X123190000Y-107850000D03*
%TO.P,esp32s2,20,GND*%
X120650000Y-107850000D03*
%TO.P,esp32s2,21,17*%
%TO.N,Net-(esp32s1-17)*%
X123190000Y-110390000D03*
%TO.P,esp32s2,22,16*%
%TO.N,Net-(esp32s1-16)*%
X120650000Y-110390000D03*
%TO.P,esp32s2,23,21*%
%TO.N,unconnected-(esp32s1-21-Pad23)*%
X123190000Y-112930000D03*
%TO.P,esp32s2,24,18*%
%TO.N,unconnected-(esp32s1-18-Pad24)*%
X120650000Y-112930000D03*
%TO.P,esp32s2,25,34*%
%TO.N,unconnected-(esp32s1-34-Pad25)*%
X123190000Y-115470000D03*
%TO.P,esp32s2,26,33*%
%TO.N,unconnected-(esp32s1-33-Pad26)*%
X120650000Y-115470000D03*
%TO.P,esp32s2,27,36*%
%TO.N,unconnected-(esp32s1-36-Pad27)*%
X123190000Y-118010000D03*
%TO.P,esp32s2,28,35*%
%TO.N,unconnected-(esp32s1-35-Pad28)*%
X120650000Y-118010000D03*
%TO.P,esp32s2,29,38*%
%TO.N,unconnected-(esp32s1-38-Pad29)*%
X123190000Y-120550000D03*
%TO.P,esp32s2,30,37*%
%TO.N,unconnected-(esp32s1-37-Pad30)*%
X120650000Y-120550000D03*
%TO.P,esp32s2,31,40*%
%TO.N,unconnected-(esp32s1-40-Pad31)*%
X123190000Y-123090000D03*
%TO.P,esp32s2,32,39*%
%TO.N,unconnected-(esp32s1-39-Pad32)*%
X120650000Y-123090000D03*
%TD*%
%TO.P,ht1,1,GND*%
%TO.N,GND*%
X90170000Y-118110000D03*
%TO.P,ht1,2,VCC*%
%TO.N,OUT_CHARGER*%
X92710000Y-118110000D03*
%TO.P,ht1,3,3v3*%
%TO.N,+3.3V*%
X95250000Y-118110000D03*
%TD*%
%TO.P,ht2,1,GND*%
%TO.N,GND*%
X90170000Y-107950000D03*
%TO.P,ht2,2,VCC*%
%TO.N,OUT_CHARGER*%
X92710000Y-107950000D03*
%TO.P,ht2,3,3v3*%
%TO.N,+3.3V*%
X95250000Y-107950000D03*
%TD*%
D11*
%TO.P,R1,1*%
%TO.N,GND*%
X99060000Y-130810000D03*
D12*
%TO.P,R1,2*%
%TO.N,Net-(esp32s1-16)*%
X114300000Y-130810000D03*
%TD*%
D10*
%TO.P,U1,1,PIN*%
%TO.N,Net-(U1-PIN)*%
X152400000Y-104140000D03*
%TO.P,U1,2,VCC*%
%TO.N,+3.3V*%
X154940000Y-104140000D03*
%TO.P,U1,3,GND*%
%TO.N,GND*%
X157480000Y-104140000D03*
%TD*%
D14*
%TO.N,BATT*%
X94000000Y-128000000D02*
X85800000Y-128000000D01*
X77470000Y-136330000D02*
X77470000Y-147320000D01*
X82860000Y-130940000D02*
X77470000Y-136330000D01*
X77470000Y-147320000D02*
X72390000Y-152400000D01*
X96270000Y-125730000D02*
X94000000Y-128000000D01*
X99060000Y-125730000D02*
X96270000Y-125730000D01*
X72390000Y-152400000D02*
X72390000Y-152490000D01*
X85800000Y-128000000D02*
X82860000Y-130940000D01*
%TO.N,GND*%
X114300000Y-109220000D02*
X119280000Y-109220000D01*
X91540000Y-127000000D02*
X92710000Y-125830000D01*
X86360000Y-113030000D02*
X90170000Y-109220000D01*
X114300000Y-109220000D02*
X110490000Y-113030000D01*
X104000000Y-123000000D02*
X104000000Y-125870000D01*
X92710000Y-125830000D02*
X92710000Y-120750000D01*
X92710000Y-120750000D02*
X90170000Y-118210000D01*
X107010000Y-120320000D02*
X104140000Y-120320000D01*
X82000000Y-127000000D02*
X91540000Y-127000000D01*
X114300000Y-110300000D02*
X114300000Y-109220000D01*
X72390000Y-142330000D02*
X72390000Y-131840000D01*
X71490000Y-130940000D02*
X74990000Y-130940000D01*
X90170000Y-109220000D02*
X90170000Y-107950000D01*
X74990000Y-130940000D02*
X78060000Y-130940000D01*
X120650000Y-107850000D02*
X123190000Y-107850000D01*
X110490000Y-113030000D02*
X110490000Y-116840000D01*
X115570000Y-102870000D02*
X114300000Y-104140000D01*
X76450000Y-113030000D02*
X86360000Y-113030000D01*
X110490000Y-116840000D02*
X107010000Y-120320000D01*
X92710000Y-125830000D02*
X94170000Y-125830000D01*
X90170000Y-107950000D02*
X90170000Y-118110000D01*
X78060000Y-130940000D02*
X82000000Y-127000000D01*
X94170000Y-125830000D02*
X97000000Y-123000000D01*
X72390000Y-131840000D02*
X71490000Y-130940000D01*
X114300000Y-104140000D02*
X114300000Y-109220000D01*
X104000000Y-123000000D02*
X104000000Y-120460000D01*
X97000000Y-123000000D02*
X104000000Y-123000000D01*
X104000000Y-125870000D02*
X99060000Y-130810000D01*
X104000000Y-120460000D02*
X104140000Y-120320000D01*
X119280000Y-109220000D02*
X120650000Y-107850000D01*
X104140000Y-120320000D02*
X99060000Y-120320000D01*
X71860000Y-108440000D02*
X76450000Y-113030000D01*
%TO.N,+3.3V*%
X137160000Y-101600000D02*
X134620000Y-104140000D01*
X139700000Y-134620000D02*
X147320000Y-134620000D01*
X143510000Y-105310000D02*
X139800000Y-101600000D01*
X134620000Y-104140000D02*
X134620000Y-129540000D01*
X149860000Y-124460000D02*
X149860000Y-128270000D01*
X149860000Y-132080000D02*
X149860000Y-128270000D01*
X134620000Y-129540000D02*
X139700000Y-134620000D01*
X147320000Y-134620000D02*
X149860000Y-132080000D01*
X139800000Y-101600000D02*
X137160000Y-101600000D01*
%TO.N,Net-(i2c_breakout_1-SCL)*%
X154051000Y-122555000D02*
X154940000Y-123444000D01*
X138430000Y-114300000D02*
X138430000Y-124460000D01*
X138430000Y-124460000D02*
X139700000Y-125730000D01*
X146050000Y-125730000D02*
X149225000Y-122555000D01*
X139800000Y-112930000D02*
X138430000Y-114300000D01*
X139700000Y-125730000D02*
X146050000Y-125730000D01*
X140970000Y-112930000D02*
X139800000Y-112930000D01*
X154940000Y-123444000D02*
X154940000Y-124460000D01*
X149225000Y-122555000D02*
X154051000Y-122555000D01*
D15*
%TO.N,Net-(esp32s1-9)*%
X157380000Y-124460000D02*
X157480000Y-124460000D01*
D14*
X154813000Y-121666000D02*
X157480000Y-124333000D01*
X157480000Y-124333000D02*
X157480000Y-124460000D01*
X143510000Y-112930000D02*
X146177000Y-115597000D01*
X146939000Y-121666000D02*
X154813000Y-121666000D01*
X146177000Y-115597000D02*
X146177000Y-120904000D01*
X146177000Y-120904000D02*
X146939000Y-121666000D01*
X157480000Y-124460000D02*
X157480000Y-128270000D01*
%TO.N,Net-(esp32s1-16)*%
X114300000Y-125730000D02*
X114300000Y-130810000D01*
X120650000Y-110390000D02*
X118110000Y-112930000D01*
X118110000Y-112930000D02*
X118110000Y-124460000D01*
X118110000Y-124460000D02*
X115570000Y-124460000D01*
X115570000Y-124460000D02*
X114300000Y-125730000D01*
D15*
X119610000Y-110390000D02*
X120650000Y-110390000D01*
D14*
%TO.N,OUT_CHARGER*%
X85990000Y-130940000D02*
X86000000Y-130950000D01*
%TO.N,SOL*%
X99060000Y-107060000D02*
X99060000Y-115570000D01*
X90000000Y-104000000D02*
X86360000Y-107640000D01*
X101220000Y-109220000D02*
X111760000Y-109220000D01*
X96000000Y-104000000D02*
X90000000Y-104000000D01*
X99060000Y-107060000D02*
X96000000Y-104000000D01*
X86360000Y-107640000D02*
X86360000Y-108440000D01*
X99060000Y-107060000D02*
X101220000Y-109220000D01*
%TD*%
M02*
