M48
; DRILL file {KiCad 8.0.8-8.0.8-0~ubuntu24.10.1} date 2025-03-16T16:58:10+0100
; FORMAT={-:-/ absolute / inch / decimal}
; #@! TF.CreationDate,2025-03-16T16:58:10+01:00
; #@! TF.GenerationSoftware,Kicad,Pcbnew,8.0.8-8.0.8-0~ubuntu24.10.1
; #@! TF.FileFunction,Plated,1,2,PTH
FMAT,2
INCH
; #@! TA.AperFunction,Plated,PTH,ComponentDrill
T1C0.0300
; #@! TA.AperFunction,Plated,PTH,ComponentDrill
T2C0.0315
; #@! TA.AperFunction,Plated,PTH,ComponentDrill
T3C0.0354
%
G90
G05
T1
X4.35Y-4.05
X4.55Y-4.05
T2
X3.65Y-4.9539
X3.65Y-5.1508
X3.9Y-4.55
X3.9Y-4.737
X3.9Y-4.95
X3.9Y-5.15
X4.5Y-4.55
X4.5Y-4.737
X4.5Y-4.95
X4.5Y-5.15
T3
X2.8291Y-4.2693
X2.8291Y-5.1551
X2.85Y-5.6035
X2.85Y-6.0035
X2.9669Y-5.1551
X3.2622Y-5.1551
X3.4Y-4.2693
X3.4Y-5.1551
X3.55Y-4.25
X3.55Y-4.65
X3.65Y-4.25
X3.65Y-4.65
X3.75Y-4.25
X3.75Y-4.65
X4.4Y-4.3
X4.5Y-4.3
X4.75Y-4.1461
X4.75Y-4.2461
X4.75Y-4.3461
X4.75Y-4.4461
X4.75Y-4.5461
X4.75Y-4.6461
X4.75Y-4.7461
X4.75Y-4.8461
X4.85Y-4.1461
X4.85Y-4.2461
X4.85Y-4.3461
X4.85Y-4.4461
X4.85Y-4.5461
X4.85Y-4.6461
X4.85Y-4.7461
X4.85Y-4.8461
X5.55Y-4.1461
X5.55Y-4.2461
X5.55Y-4.3461
X5.55Y-4.4461
X5.55Y-4.5461
X5.55Y-4.6461
X5.55Y-4.7461
X5.55Y-4.8461
X5.65Y-4.1461
X5.65Y-4.2461
X5.65Y-4.3461
X5.65Y-4.4461
X5.65Y-4.5461
X5.65Y-4.6461
X5.65Y-4.7461
X5.65Y-4.8461
X5.9Y-4.9
X5.9Y-5.05
X6.0Y-4.1
X6.0Y-4.2
X6.0Y-4.3
X6.0Y-4.4
X6.0Y-4.5
X6.0Y-4.9
X6.0Y-5.05
X6.1Y-4.1
X6.1Y-4.2
X6.1Y-4.3
X6.1Y-4.4
X6.1Y-4.5
X6.1Y-4.9
X6.1Y-5.05
X6.2Y-4.1
X6.2Y-4.2
X6.2Y-4.3
X6.2Y-4.4
X6.2Y-4.5
X6.2Y-4.9
X6.2Y-5.05
M30
