%TF.GenerationSoftware,KiCad,Pcbnew,8.0.8-8.0.8-0~ubuntu24.10.1*%
%TF.CreationDate,2025-03-16T16:58:16+01:00*%
%TF.ProjectId,nimbus_pcb_2,6e696d62-7573-45f7-9063-625f322e6b69,rev?*%
%TF.SameCoordinates,Original*%
%TF.FileFunction,Soldermask,Bot*%
%TF.FilePolarity,Negative*%
%FSLAX46Y46*%
G04 Gerber Fmt 4.6, Leading zero omitted, Abs format (unit mm)*
G04 Created by KiCad (PCBNEW 8.0.8-8.0.8-0~ubuntu24.10.1) date 2025-03-16 16:58:16*
%MOMM*%
%LPD*%
G01*
G04 APERTURE LIST*
%ADD10C,2.000000*%
%ADD11C,1.600000*%
%ADD12O,1.600000X1.600000*%
%ADD13C,1.524000*%
G04 APERTURE END LIST*
D10*
%TO.C,U5*%
X152400000Y-114300000D03*
X154940000Y-114300000D03*
X157480000Y-114300000D03*
%TD*%
%TO.C,U4*%
X152400000Y-111760000D03*
X154940000Y-111760000D03*
X157480000Y-111760000D03*
%TD*%
%TO.C,U3*%
X152400000Y-109220000D03*
X154940000Y-109220000D03*
X157480000Y-109220000D03*
%TD*%
%TO.C,U2*%
X152400000Y-106680000D03*
X154940000Y-106680000D03*
X157480000Y-106680000D03*
%TD*%
D11*
%TO.C,R2*%
X114300000Y-125730000D03*
D12*
X99060000Y-125730000D03*
%TD*%
D10*
%TO.C,Solar_charger1*%
X75360000Y-130940000D03*
X71860000Y-130940000D03*
X86360000Y-130940000D03*
X82860000Y-130940000D03*
X71860000Y-108440000D03*
X86360000Y-108440000D03*
%TD*%
%TO.C,battery1*%
X72390000Y-152490000D03*
X72390000Y-142330000D03*
%TD*%
%TO.C,solar_panel1*%
X111760000Y-109220000D03*
X114300000Y-109220000D03*
%TD*%
%TO.C,i2c_breakout_1*%
X149860000Y-124460000D03*
X152400000Y-124460000D03*
X154940000Y-124460000D03*
X157480000Y-124460000D03*
%TD*%
D13*
%TO.C,Reset1*%
X110490000Y-102870000D03*
X115570000Y-102870000D03*
%TD*%
D11*
%TO.C,R4*%
X114300000Y-115570000D03*
D12*
X99060000Y-115570000D03*
%TD*%
D11*
%TO.C,R3*%
X99060000Y-120320000D03*
D12*
X114300000Y-120320000D03*
%TD*%
D10*
%TO.C,i2c_breakout_2*%
X149860000Y-128270000D03*
X152400000Y-128270000D03*
X154940000Y-128270000D03*
X157480000Y-128270000D03*
%TD*%
D11*
%TO.C,C1*%
X92710000Y-130830000D03*
X92710000Y-125830000D03*
%TD*%
D10*
%TO.C,esp32s2*%
X143510000Y-105310000D03*
X140970000Y-105310000D03*
X143510000Y-107850000D03*
X140970000Y-107850000D03*
X143510000Y-110390000D03*
X140970000Y-110390000D03*
X143510000Y-112930000D03*
X140970000Y-112930000D03*
X143510000Y-115470000D03*
X140970000Y-115470000D03*
X143510000Y-118010000D03*
X140970000Y-118010000D03*
X143510000Y-120550000D03*
X140970000Y-120550000D03*
X143510000Y-123090000D03*
X140970000Y-123090000D03*
X123190000Y-105310000D03*
X120650000Y-105310000D03*
X123190000Y-107850000D03*
X120650000Y-107850000D03*
X123190000Y-110390000D03*
X120650000Y-110390000D03*
X123190000Y-112930000D03*
X120650000Y-112930000D03*
X123190000Y-115470000D03*
X120650000Y-115470000D03*
X123190000Y-118010000D03*
X120650000Y-118010000D03*
X123190000Y-120550000D03*
X120650000Y-120550000D03*
X123190000Y-123090000D03*
X120650000Y-123090000D03*
%TD*%
%TO.C,ht1*%
X90170000Y-118110000D03*
X92710000Y-118110000D03*
X95250000Y-118110000D03*
%TD*%
%TO.C,ht2*%
X90170000Y-107950000D03*
X92710000Y-107950000D03*
X95250000Y-107950000D03*
%TD*%
D11*
%TO.C,R1*%
X99060000Y-130810000D03*
D12*
X114300000Y-130810000D03*
%TD*%
D10*
%TO.C,U1*%
X152400000Y-104140000D03*
X154940000Y-104140000D03*
X157480000Y-104140000D03*
%TD*%
M02*
