%TF.GenerationSoftware,KiCad,Pcbnew,8.0.8-8.0.8-0~ubuntu24.10.1*%
%TF.CreationDate,2025-03-16T16:58:09+01:00*%
%TF.ProjectId,nimbus_pcb_2,6e696d62-7573-45f7-9063-625f322e6b69,rev?*%
%TF.SameCoordinates,Original*%
%TF.FileFunction,Drillmap*%
%TF.FilePolarity,Positive*%
%FSLAX45Y45*%
G04 Gerber Fmt 4.5, Leading zero omitted, Abs format (unit mm)*
G04 Created by KiCad (PCBNEW 8.0.8-8.0.8-0~ubuntu24.10.1) date 2025-03-16 16:58:09*
%MOMM*%
%LPD*%
G01*
G04 APERTURE LIST*
%ADD10C,0.050000*%
%ADD11C,0.200000*%
%ADD12C,0.100000*%
G04 APERTURE END LIST*
D10*
X15800605Y-9652000D02*
G75*
G02*
X15441395Y-9652000I-179605J0D01*
G01*
X15441395Y-9652000D02*
G75*
G02*
X15800605Y-9652000I179605J0D01*
G01*
X6731000Y-9271000D02*
X16129000Y-9271000D01*
X16129000Y-16129000D01*
X6731000Y-16129000D01*
X6731000Y-9271000D01*
X7418605Y-9652000D02*
G75*
G02*
X7059395Y-9652000I-179605J0D01*
G01*
X7059395Y-9652000D02*
G75*
G02*
X7418605Y-9652000I179605J0D01*
G01*
D11*
D12*
X11010900Y-10248900D02*
X11087100Y-10325100D01*
X11087100Y-10248900D02*
X11010900Y-10325100D01*
X11518900Y-10248900D02*
X11595100Y-10325100D01*
X11595100Y-10248900D02*
X11518900Y-10325100D01*
X9311000Y-12583000D02*
G75*
G02*
X9231000Y-12583000I-40000J0D01*
G01*
X9231000Y-12583000D02*
G75*
G02*
X9311000Y-12583000I40000J0D01*
G01*
X9311000Y-13083000D02*
G75*
G02*
X9231000Y-13083000I-40000J0D01*
G01*
X9231000Y-13083000D02*
G75*
G02*
X9311000Y-13083000I40000J0D01*
G01*
X9946000Y-11557000D02*
G75*
G02*
X9866000Y-11557000I-40000J0D01*
G01*
X9866000Y-11557000D02*
G75*
G02*
X9946000Y-11557000I40000J0D01*
G01*
X9946000Y-12032000D02*
G75*
G02*
X9866000Y-12032000I-40000J0D01*
G01*
X9866000Y-12032000D02*
G75*
G02*
X9946000Y-12032000I40000J0D01*
G01*
X9946000Y-12573000D02*
G75*
G02*
X9866000Y-12573000I-40000J0D01*
G01*
X9866000Y-12573000D02*
G75*
G02*
X9946000Y-12573000I40000J0D01*
G01*
X9946000Y-13081000D02*
G75*
G02*
X9866000Y-13081000I-40000J0D01*
G01*
X9866000Y-13081000D02*
G75*
G02*
X9946000Y-13081000I40000J0D01*
G01*
X11470000Y-11557000D02*
G75*
G02*
X11390000Y-11557000I-40000J0D01*
G01*
X11390000Y-11557000D02*
G75*
G02*
X11470000Y-11557000I40000J0D01*
G01*
X11470000Y-12032000D02*
G75*
G02*
X11390000Y-12032000I-40000J0D01*
G01*
X11390000Y-12032000D02*
G75*
G02*
X11470000Y-12032000I40000J0D01*
G01*
X11470000Y-12573000D02*
G75*
G02*
X11390000Y-12573000I-40000J0D01*
G01*
X11390000Y-12573000D02*
G75*
G02*
X11470000Y-12573000I40000J0D01*
G01*
X11470000Y-13081000D02*
G75*
G02*
X11390000Y-13081000I-40000J0D01*
G01*
X11390000Y-13081000D02*
G75*
G02*
X11470000Y-13081000I40000J0D01*
G01*
X7186000Y-10799000D02*
X7186000Y-10889000D01*
X7141000Y-10844000D02*
X7231000Y-10844000D01*
X7186000Y-13049000D02*
X7186000Y-13139000D01*
X7141000Y-13094000D02*
X7231000Y-13094000D01*
X7239000Y-14188000D02*
X7239000Y-14278000D01*
X7194000Y-14233000D02*
X7284000Y-14233000D01*
X7239000Y-15204000D02*
X7239000Y-15294000D01*
X7194000Y-15249000D02*
X7284000Y-15249000D01*
X7536000Y-13049000D02*
X7536000Y-13139000D01*
X7491000Y-13094000D02*
X7581000Y-13094000D01*
X8286000Y-13049000D02*
X8286000Y-13139000D01*
X8241000Y-13094000D02*
X8331000Y-13094000D01*
X8636000Y-10799000D02*
X8636000Y-10889000D01*
X8591000Y-10844000D02*
X8681000Y-10844000D01*
X8636000Y-13049000D02*
X8636000Y-13139000D01*
X8591000Y-13094000D02*
X8681000Y-13094000D01*
X9017000Y-10750000D02*
X9017000Y-10840000D01*
X8972000Y-10795000D02*
X9062000Y-10795000D01*
X9017000Y-11766000D02*
X9017000Y-11856000D01*
X8972000Y-11811000D02*
X9062000Y-11811000D01*
X9271000Y-10750000D02*
X9271000Y-10840000D01*
X9226000Y-10795000D02*
X9316000Y-10795000D01*
X9271000Y-11766000D02*
X9271000Y-11856000D01*
X9226000Y-11811000D02*
X9316000Y-11811000D01*
X9525000Y-10750000D02*
X9525000Y-10840000D01*
X9480000Y-10795000D02*
X9570000Y-10795000D01*
X9525000Y-11766000D02*
X9525000Y-11856000D01*
X9480000Y-11811000D02*
X9570000Y-11811000D01*
X11176000Y-10877000D02*
X11176000Y-10967000D01*
X11131000Y-10922000D02*
X11221000Y-10922000D01*
X11430000Y-10877000D02*
X11430000Y-10967000D01*
X11385000Y-10922000D02*
X11475000Y-10922000D01*
X12065000Y-10486000D02*
X12065000Y-10576000D01*
X12020000Y-10531000D02*
X12110000Y-10531000D01*
X12065000Y-10740000D02*
X12065000Y-10830000D01*
X12020000Y-10785000D02*
X12110000Y-10785000D01*
X12065000Y-10994000D02*
X12065000Y-11084000D01*
X12020000Y-11039000D02*
X12110000Y-11039000D01*
X12065000Y-11248000D02*
X12065000Y-11338000D01*
X12020000Y-11293000D02*
X12110000Y-11293000D01*
X12065000Y-11502000D02*
X12065000Y-11592000D01*
X12020000Y-11547000D02*
X12110000Y-11547000D01*
X12065000Y-11756000D02*
X12065000Y-11846000D01*
X12020000Y-11801000D02*
X12110000Y-11801000D01*
X12065000Y-12010000D02*
X12065000Y-12100000D01*
X12020000Y-12055000D02*
X12110000Y-12055000D01*
X12065000Y-12264000D02*
X12065000Y-12354000D01*
X12020000Y-12309000D02*
X12110000Y-12309000D01*
X12319000Y-10486000D02*
X12319000Y-10576000D01*
X12274000Y-10531000D02*
X12364000Y-10531000D01*
X12319000Y-10740000D02*
X12319000Y-10830000D01*
X12274000Y-10785000D02*
X12364000Y-10785000D01*
X12319000Y-10994000D02*
X12319000Y-11084000D01*
X12274000Y-11039000D02*
X12364000Y-11039000D01*
X12319000Y-11248000D02*
X12319000Y-11338000D01*
X12274000Y-11293000D02*
X12364000Y-11293000D01*
X12319000Y-11502000D02*
X12319000Y-11592000D01*
X12274000Y-11547000D02*
X12364000Y-11547000D01*
X12319000Y-11756000D02*
X12319000Y-11846000D01*
X12274000Y-11801000D02*
X12364000Y-11801000D01*
X12319000Y-12010000D02*
X12319000Y-12100000D01*
X12274000Y-12055000D02*
X12364000Y-12055000D01*
X12319000Y-12264000D02*
X12319000Y-12354000D01*
X12274000Y-12309000D02*
X12364000Y-12309000D01*
X14097000Y-10486000D02*
X14097000Y-10576000D01*
X14052000Y-10531000D02*
X14142000Y-10531000D01*
X14097000Y-10740000D02*
X14097000Y-10830000D01*
X14052000Y-10785000D02*
X14142000Y-10785000D01*
X14097000Y-10994000D02*
X14097000Y-11084000D01*
X14052000Y-11039000D02*
X14142000Y-11039000D01*
X14097000Y-11248000D02*
X14097000Y-11338000D01*
X14052000Y-11293000D02*
X14142000Y-11293000D01*
X14097000Y-11502000D02*
X14097000Y-11592000D01*
X14052000Y-11547000D02*
X14142000Y-11547000D01*
X14097000Y-11756000D02*
X14097000Y-11846000D01*
X14052000Y-11801000D02*
X14142000Y-11801000D01*
X14097000Y-12010000D02*
X14097000Y-12100000D01*
X14052000Y-12055000D02*
X14142000Y-12055000D01*
X14097000Y-12264000D02*
X14097000Y-12354000D01*
X14052000Y-12309000D02*
X14142000Y-12309000D01*
X14351000Y-10486000D02*
X14351000Y-10576000D01*
X14306000Y-10531000D02*
X14396000Y-10531000D01*
X14351000Y-10740000D02*
X14351000Y-10830000D01*
X14306000Y-10785000D02*
X14396000Y-10785000D01*
X14351000Y-10994000D02*
X14351000Y-11084000D01*
X14306000Y-11039000D02*
X14396000Y-11039000D01*
X14351000Y-11248000D02*
X14351000Y-11338000D01*
X14306000Y-11293000D02*
X14396000Y-11293000D01*
X14351000Y-11502000D02*
X14351000Y-11592000D01*
X14306000Y-11547000D02*
X14396000Y-11547000D01*
X14351000Y-11756000D02*
X14351000Y-11846000D01*
X14306000Y-11801000D02*
X14396000Y-11801000D01*
X14351000Y-12010000D02*
X14351000Y-12100000D01*
X14306000Y-12055000D02*
X14396000Y-12055000D01*
X14351000Y-12264000D02*
X14351000Y-12354000D01*
X14306000Y-12309000D02*
X14396000Y-12309000D01*
X14986000Y-12401000D02*
X14986000Y-12491000D01*
X14941000Y-12446000D02*
X15031000Y-12446000D01*
X14986000Y-12782000D02*
X14986000Y-12872000D01*
X14941000Y-12827000D02*
X15031000Y-12827000D01*
X15240000Y-10369000D02*
X15240000Y-10459000D01*
X15195000Y-10414000D02*
X15285000Y-10414000D01*
X15240000Y-10623000D02*
X15240000Y-10713000D01*
X15195000Y-10668000D02*
X15285000Y-10668000D01*
X15240000Y-10877000D02*
X15240000Y-10967000D01*
X15195000Y-10922000D02*
X15285000Y-10922000D01*
X15240000Y-11131000D02*
X15240000Y-11221000D01*
X15195000Y-11176000D02*
X15285000Y-11176000D01*
X15240000Y-11385000D02*
X15240000Y-11475000D01*
X15195000Y-11430000D02*
X15285000Y-11430000D01*
X15240000Y-12401000D02*
X15240000Y-12491000D01*
X15195000Y-12446000D02*
X15285000Y-12446000D01*
X15240000Y-12782000D02*
X15240000Y-12872000D01*
X15195000Y-12827000D02*
X15285000Y-12827000D01*
X15494000Y-10369000D02*
X15494000Y-10459000D01*
X15449000Y-10414000D02*
X15539000Y-10414000D01*
X15494000Y-10623000D02*
X15494000Y-10713000D01*
X15449000Y-10668000D02*
X15539000Y-10668000D01*
X15494000Y-10877000D02*
X15494000Y-10967000D01*
X15449000Y-10922000D02*
X15539000Y-10922000D01*
X15494000Y-11131000D02*
X15494000Y-11221000D01*
X15449000Y-11176000D02*
X15539000Y-11176000D01*
X15494000Y-11385000D02*
X15494000Y-11475000D01*
X15449000Y-11430000D02*
X15539000Y-11430000D01*
X15494000Y-12401000D02*
X15494000Y-12491000D01*
X15449000Y-12446000D02*
X15539000Y-12446000D01*
X15494000Y-12782000D02*
X15494000Y-12872000D01*
X15449000Y-12827000D02*
X15539000Y-12827000D01*
X15748000Y-10369000D02*
X15748000Y-10459000D01*
X15703000Y-10414000D02*
X15793000Y-10414000D01*
X15748000Y-10623000D02*
X15748000Y-10713000D01*
X15703000Y-10668000D02*
X15793000Y-10668000D01*
X15748000Y-10877000D02*
X15748000Y-10967000D01*
X15703000Y-10922000D02*
X15793000Y-10922000D01*
X15748000Y-11131000D02*
X15748000Y-11221000D01*
X15703000Y-11176000D02*
X15793000Y-11176000D01*
X15748000Y-11385000D02*
X15748000Y-11475000D01*
X15703000Y-11430000D02*
X15793000Y-11430000D01*
X15748000Y-12401000D02*
X15748000Y-12491000D01*
X15703000Y-12446000D02*
X15793000Y-12446000D01*
X15748000Y-12782000D02*
X15748000Y-12872000D01*
X15703000Y-12827000D02*
X15793000Y-12827000D01*
D11*
X6989277Y-16442984D02*
X6989277Y-16242984D01*
X6989277Y-16242984D02*
X7036896Y-16242984D01*
X7036896Y-16242984D02*
X7065467Y-16252508D01*
X7065467Y-16252508D02*
X7084515Y-16271555D01*
X7084515Y-16271555D02*
X7094039Y-16290603D01*
X7094039Y-16290603D02*
X7103562Y-16328698D01*
X7103562Y-16328698D02*
X7103562Y-16357269D01*
X7103562Y-16357269D02*
X7094039Y-16395365D01*
X7094039Y-16395365D02*
X7084515Y-16414412D01*
X7084515Y-16414412D02*
X7065467Y-16433460D01*
X7065467Y-16433460D02*
X7036896Y-16442984D01*
X7036896Y-16442984D02*
X6989277Y-16442984D01*
X7189277Y-16442984D02*
X7189277Y-16309650D01*
X7189277Y-16347746D02*
X7198801Y-16328698D01*
X7198801Y-16328698D02*
X7208324Y-16319174D01*
X7208324Y-16319174D02*
X7227372Y-16309650D01*
X7227372Y-16309650D02*
X7246420Y-16309650D01*
X7313086Y-16442984D02*
X7313086Y-16309650D01*
X7313086Y-16242984D02*
X7303562Y-16252508D01*
X7303562Y-16252508D02*
X7313086Y-16262031D01*
X7313086Y-16262031D02*
X7322610Y-16252508D01*
X7322610Y-16252508D02*
X7313086Y-16242984D01*
X7313086Y-16242984D02*
X7313086Y-16262031D01*
X7436896Y-16442984D02*
X7417848Y-16433460D01*
X7417848Y-16433460D02*
X7408324Y-16414412D01*
X7408324Y-16414412D02*
X7408324Y-16242984D01*
X7541658Y-16442984D02*
X7522610Y-16433460D01*
X7522610Y-16433460D02*
X7513086Y-16414412D01*
X7513086Y-16414412D02*
X7513086Y-16242984D01*
X7770229Y-16442984D02*
X7770229Y-16242984D01*
X7770229Y-16242984D02*
X7836896Y-16385841D01*
X7836896Y-16385841D02*
X7903562Y-16242984D01*
X7903562Y-16242984D02*
X7903562Y-16442984D01*
X8084515Y-16442984D02*
X8084515Y-16338222D01*
X8084515Y-16338222D02*
X8074991Y-16319174D01*
X8074991Y-16319174D02*
X8055943Y-16309650D01*
X8055943Y-16309650D02*
X8017848Y-16309650D01*
X8017848Y-16309650D02*
X7998801Y-16319174D01*
X8084515Y-16433460D02*
X8065467Y-16442984D01*
X8065467Y-16442984D02*
X8017848Y-16442984D01*
X8017848Y-16442984D02*
X7998801Y-16433460D01*
X7998801Y-16433460D02*
X7989277Y-16414412D01*
X7989277Y-16414412D02*
X7989277Y-16395365D01*
X7989277Y-16395365D02*
X7998801Y-16376317D01*
X7998801Y-16376317D02*
X8017848Y-16366793D01*
X8017848Y-16366793D02*
X8065467Y-16366793D01*
X8065467Y-16366793D02*
X8084515Y-16357269D01*
X8179753Y-16309650D02*
X8179753Y-16509650D01*
X8179753Y-16319174D02*
X8198801Y-16309650D01*
X8198801Y-16309650D02*
X8236896Y-16309650D01*
X8236896Y-16309650D02*
X8255943Y-16319174D01*
X8255943Y-16319174D02*
X8265467Y-16328698D01*
X8265467Y-16328698D02*
X8274991Y-16347746D01*
X8274991Y-16347746D02*
X8274991Y-16404888D01*
X8274991Y-16404888D02*
X8265467Y-16423936D01*
X8265467Y-16423936D02*
X8255943Y-16433460D01*
X8255943Y-16433460D02*
X8236896Y-16442984D01*
X8236896Y-16442984D02*
X8198801Y-16442984D01*
X8198801Y-16442984D02*
X8179753Y-16433460D01*
X8360705Y-16423936D02*
X8370229Y-16433460D01*
X8370229Y-16433460D02*
X8360705Y-16442984D01*
X8360705Y-16442984D02*
X8351182Y-16433460D01*
X8351182Y-16433460D02*
X8360705Y-16423936D01*
X8360705Y-16423936D02*
X8360705Y-16442984D01*
X8360705Y-16319174D02*
X8370229Y-16328698D01*
X8370229Y-16328698D02*
X8360705Y-16338222D01*
X8360705Y-16338222D02*
X8351182Y-16328698D01*
X8351182Y-16328698D02*
X8360705Y-16319174D01*
X8360705Y-16319174D02*
X8360705Y-16338222D01*
D12*
X6652300Y-16733400D02*
X6728500Y-16809600D01*
X6728500Y-16733400D02*
X6652300Y-16809600D01*
D11*
X7027372Y-16662984D02*
X7046420Y-16662984D01*
X7046420Y-16662984D02*
X7065467Y-16672508D01*
X7065467Y-16672508D02*
X7074991Y-16682031D01*
X7074991Y-16682031D02*
X7084515Y-16701079D01*
X7084515Y-16701079D02*
X7094039Y-16739174D01*
X7094039Y-16739174D02*
X7094039Y-16786793D01*
X7094039Y-16786793D02*
X7084515Y-16824889D01*
X7084515Y-16824889D02*
X7074991Y-16843936D01*
X7074991Y-16843936D02*
X7065467Y-16853460D01*
X7065467Y-16853460D02*
X7046420Y-16862984D01*
X7046420Y-16862984D02*
X7027372Y-16862984D01*
X7027372Y-16862984D02*
X7008324Y-16853460D01*
X7008324Y-16853460D02*
X6998801Y-16843936D01*
X6998801Y-16843936D02*
X6989277Y-16824889D01*
X6989277Y-16824889D02*
X6979753Y-16786793D01*
X6979753Y-16786793D02*
X6979753Y-16739174D01*
X6979753Y-16739174D02*
X6989277Y-16701079D01*
X6989277Y-16701079D02*
X6998801Y-16682031D01*
X6998801Y-16682031D02*
X7008324Y-16672508D01*
X7008324Y-16672508D02*
X7027372Y-16662984D01*
X7179753Y-16843936D02*
X7189277Y-16853460D01*
X7189277Y-16853460D02*
X7179753Y-16862984D01*
X7179753Y-16862984D02*
X7170229Y-16853460D01*
X7170229Y-16853460D02*
X7179753Y-16843936D01*
X7179753Y-16843936D02*
X7179753Y-16862984D01*
X7255943Y-16662984D02*
X7389277Y-16662984D01*
X7389277Y-16662984D02*
X7303562Y-16862984D01*
X7551182Y-16662984D02*
X7513086Y-16662984D01*
X7513086Y-16662984D02*
X7494039Y-16672508D01*
X7494039Y-16672508D02*
X7484515Y-16682031D01*
X7484515Y-16682031D02*
X7465467Y-16710603D01*
X7465467Y-16710603D02*
X7455943Y-16748698D01*
X7455943Y-16748698D02*
X7455943Y-16824889D01*
X7455943Y-16824889D02*
X7465467Y-16843936D01*
X7465467Y-16843936D02*
X7474991Y-16853460D01*
X7474991Y-16853460D02*
X7494039Y-16862984D01*
X7494039Y-16862984D02*
X7532134Y-16862984D01*
X7532134Y-16862984D02*
X7551182Y-16853460D01*
X7551182Y-16853460D02*
X7560705Y-16843936D01*
X7560705Y-16843936D02*
X7570229Y-16824889D01*
X7570229Y-16824889D02*
X7570229Y-16777270D01*
X7570229Y-16777270D02*
X7560705Y-16758222D01*
X7560705Y-16758222D02*
X7551182Y-16748698D01*
X7551182Y-16748698D02*
X7532134Y-16739174D01*
X7532134Y-16739174D02*
X7494039Y-16739174D01*
X7494039Y-16739174D02*
X7474991Y-16748698D01*
X7474991Y-16748698D02*
X7465467Y-16758222D01*
X7465467Y-16758222D02*
X7455943Y-16777270D01*
X7646420Y-16682031D02*
X7655943Y-16672508D01*
X7655943Y-16672508D02*
X7674991Y-16662984D01*
X7674991Y-16662984D02*
X7722610Y-16662984D01*
X7722610Y-16662984D02*
X7741658Y-16672508D01*
X7741658Y-16672508D02*
X7751182Y-16682031D01*
X7751182Y-16682031D02*
X7760705Y-16701079D01*
X7760705Y-16701079D02*
X7760705Y-16720127D01*
X7760705Y-16720127D02*
X7751182Y-16748698D01*
X7751182Y-16748698D02*
X7636896Y-16862984D01*
X7636896Y-16862984D02*
X7760705Y-16862984D01*
X7846420Y-16862984D02*
X7846420Y-16729650D01*
X7846420Y-16748698D02*
X7855943Y-16739174D01*
X7855943Y-16739174D02*
X7874991Y-16729650D01*
X7874991Y-16729650D02*
X7903563Y-16729650D01*
X7903563Y-16729650D02*
X7922610Y-16739174D01*
X7922610Y-16739174D02*
X7932134Y-16758222D01*
X7932134Y-16758222D02*
X7932134Y-16862984D01*
X7932134Y-16758222D02*
X7941658Y-16739174D01*
X7941658Y-16739174D02*
X7960705Y-16729650D01*
X7960705Y-16729650D02*
X7989277Y-16729650D01*
X7989277Y-16729650D02*
X8008324Y-16739174D01*
X8008324Y-16739174D02*
X8017848Y-16758222D01*
X8017848Y-16758222D02*
X8017848Y-16862984D01*
X8113086Y-16862984D02*
X8113086Y-16729650D01*
X8113086Y-16748698D02*
X8122610Y-16739174D01*
X8122610Y-16739174D02*
X8141658Y-16729650D01*
X8141658Y-16729650D02*
X8170229Y-16729650D01*
X8170229Y-16729650D02*
X8189277Y-16739174D01*
X8189277Y-16739174D02*
X8198801Y-16758222D01*
X8198801Y-16758222D02*
X8198801Y-16862984D01*
X8198801Y-16758222D02*
X8208324Y-16739174D01*
X8208324Y-16739174D02*
X8227372Y-16729650D01*
X8227372Y-16729650D02*
X8255943Y-16729650D01*
X8255943Y-16729650D02*
X8274991Y-16739174D01*
X8274991Y-16739174D02*
X8284515Y-16758222D01*
X8284515Y-16758222D02*
X8284515Y-16862984D01*
X8674991Y-16653460D02*
X8503563Y-16910603D01*
X8932134Y-16662984D02*
X8951182Y-16662984D01*
X8951182Y-16662984D02*
X8970229Y-16672508D01*
X8970229Y-16672508D02*
X8979753Y-16682031D01*
X8979753Y-16682031D02*
X8989277Y-16701079D01*
X8989277Y-16701079D02*
X8998801Y-16739174D01*
X8998801Y-16739174D02*
X8998801Y-16786793D01*
X8998801Y-16786793D02*
X8989277Y-16824889D01*
X8989277Y-16824889D02*
X8979753Y-16843936D01*
X8979753Y-16843936D02*
X8970229Y-16853460D01*
X8970229Y-16853460D02*
X8951182Y-16862984D01*
X8951182Y-16862984D02*
X8932134Y-16862984D01*
X8932134Y-16862984D02*
X8913087Y-16853460D01*
X8913087Y-16853460D02*
X8903563Y-16843936D01*
X8903563Y-16843936D02*
X8894039Y-16824889D01*
X8894039Y-16824889D02*
X8884515Y-16786793D01*
X8884515Y-16786793D02*
X8884515Y-16739174D01*
X8884515Y-16739174D02*
X8894039Y-16701079D01*
X8894039Y-16701079D02*
X8903563Y-16682031D01*
X8903563Y-16682031D02*
X8913087Y-16672508D01*
X8913087Y-16672508D02*
X8932134Y-16662984D01*
X9084515Y-16843936D02*
X9094039Y-16853460D01*
X9094039Y-16853460D02*
X9084515Y-16862984D01*
X9084515Y-16862984D02*
X9074991Y-16853460D01*
X9074991Y-16853460D02*
X9084515Y-16843936D01*
X9084515Y-16843936D02*
X9084515Y-16862984D01*
X9217848Y-16662984D02*
X9236896Y-16662984D01*
X9236896Y-16662984D02*
X9255944Y-16672508D01*
X9255944Y-16672508D02*
X9265468Y-16682031D01*
X9265468Y-16682031D02*
X9274991Y-16701079D01*
X9274991Y-16701079D02*
X9284515Y-16739174D01*
X9284515Y-16739174D02*
X9284515Y-16786793D01*
X9284515Y-16786793D02*
X9274991Y-16824889D01*
X9274991Y-16824889D02*
X9265468Y-16843936D01*
X9265468Y-16843936D02*
X9255944Y-16853460D01*
X9255944Y-16853460D02*
X9236896Y-16862984D01*
X9236896Y-16862984D02*
X9217848Y-16862984D01*
X9217848Y-16862984D02*
X9198801Y-16853460D01*
X9198801Y-16853460D02*
X9189277Y-16843936D01*
X9189277Y-16843936D02*
X9179753Y-16824889D01*
X9179753Y-16824889D02*
X9170229Y-16786793D01*
X9170229Y-16786793D02*
X9170229Y-16739174D01*
X9170229Y-16739174D02*
X9179753Y-16701079D01*
X9179753Y-16701079D02*
X9189277Y-16682031D01*
X9189277Y-16682031D02*
X9198801Y-16672508D01*
X9198801Y-16672508D02*
X9217848Y-16662984D01*
X9351182Y-16662984D02*
X9474991Y-16662984D01*
X9474991Y-16662984D02*
X9408325Y-16739174D01*
X9408325Y-16739174D02*
X9436896Y-16739174D01*
X9436896Y-16739174D02*
X9455944Y-16748698D01*
X9455944Y-16748698D02*
X9465468Y-16758222D01*
X9465468Y-16758222D02*
X9474991Y-16777270D01*
X9474991Y-16777270D02*
X9474991Y-16824889D01*
X9474991Y-16824889D02*
X9465468Y-16843936D01*
X9465468Y-16843936D02*
X9455944Y-16853460D01*
X9455944Y-16853460D02*
X9436896Y-16862984D01*
X9436896Y-16862984D02*
X9379753Y-16862984D01*
X9379753Y-16862984D02*
X9360706Y-16853460D01*
X9360706Y-16853460D02*
X9351182Y-16843936D01*
X9598801Y-16662984D02*
X9617849Y-16662984D01*
X9617849Y-16662984D02*
X9636896Y-16672508D01*
X9636896Y-16672508D02*
X9646420Y-16682031D01*
X9646420Y-16682031D02*
X9655944Y-16701079D01*
X9655944Y-16701079D02*
X9665468Y-16739174D01*
X9665468Y-16739174D02*
X9665468Y-16786793D01*
X9665468Y-16786793D02*
X9655944Y-16824889D01*
X9655944Y-16824889D02*
X9646420Y-16843936D01*
X9646420Y-16843936D02*
X9636896Y-16853460D01*
X9636896Y-16853460D02*
X9617849Y-16862984D01*
X9617849Y-16862984D02*
X9598801Y-16862984D01*
X9598801Y-16862984D02*
X9579753Y-16853460D01*
X9579753Y-16853460D02*
X9570229Y-16843936D01*
X9570229Y-16843936D02*
X9560706Y-16824889D01*
X9560706Y-16824889D02*
X9551182Y-16786793D01*
X9551182Y-16786793D02*
X9551182Y-16739174D01*
X9551182Y-16739174D02*
X9560706Y-16701079D01*
X9560706Y-16701079D02*
X9570229Y-16682031D01*
X9570229Y-16682031D02*
X9579753Y-16672508D01*
X9579753Y-16672508D02*
X9598801Y-16662984D01*
X9789277Y-16662984D02*
X9808325Y-16662984D01*
X9808325Y-16662984D02*
X9827372Y-16672508D01*
X9827372Y-16672508D02*
X9836896Y-16682031D01*
X9836896Y-16682031D02*
X9846420Y-16701079D01*
X9846420Y-16701079D02*
X9855944Y-16739174D01*
X9855944Y-16739174D02*
X9855944Y-16786793D01*
X9855944Y-16786793D02*
X9846420Y-16824889D01*
X9846420Y-16824889D02*
X9836896Y-16843936D01*
X9836896Y-16843936D02*
X9827372Y-16853460D01*
X9827372Y-16853460D02*
X9808325Y-16862984D01*
X9808325Y-16862984D02*
X9789277Y-16862984D01*
X9789277Y-16862984D02*
X9770229Y-16853460D01*
X9770229Y-16853460D02*
X9760706Y-16843936D01*
X9760706Y-16843936D02*
X9751182Y-16824889D01*
X9751182Y-16824889D02*
X9741658Y-16786793D01*
X9741658Y-16786793D02*
X9741658Y-16739174D01*
X9741658Y-16739174D02*
X9751182Y-16701079D01*
X9751182Y-16701079D02*
X9760706Y-16682031D01*
X9760706Y-16682031D02*
X9770229Y-16672508D01*
X9770229Y-16672508D02*
X9789277Y-16662984D01*
X9932134Y-16662984D02*
X9932134Y-16701079D01*
X10008325Y-16662984D02*
X10008325Y-16701079D01*
X10303563Y-16939174D02*
X10294039Y-16929650D01*
X10294039Y-16929650D02*
X10274991Y-16901079D01*
X10274991Y-16901079D02*
X10265468Y-16882031D01*
X10265468Y-16882031D02*
X10255944Y-16853460D01*
X10255944Y-16853460D02*
X10246420Y-16805841D01*
X10246420Y-16805841D02*
X10246420Y-16767746D01*
X10246420Y-16767746D02*
X10255944Y-16720127D01*
X10255944Y-16720127D02*
X10265468Y-16691555D01*
X10265468Y-16691555D02*
X10274991Y-16672508D01*
X10274991Y-16672508D02*
X10294039Y-16643936D01*
X10294039Y-16643936D02*
X10303563Y-16634412D01*
X10370230Y-16682031D02*
X10379753Y-16672508D01*
X10379753Y-16672508D02*
X10398801Y-16662984D01*
X10398801Y-16662984D02*
X10446420Y-16662984D01*
X10446420Y-16662984D02*
X10465468Y-16672508D01*
X10465468Y-16672508D02*
X10474991Y-16682031D01*
X10474991Y-16682031D02*
X10484515Y-16701079D01*
X10484515Y-16701079D02*
X10484515Y-16720127D01*
X10484515Y-16720127D02*
X10474991Y-16748698D01*
X10474991Y-16748698D02*
X10360706Y-16862984D01*
X10360706Y-16862984D02*
X10484515Y-16862984D01*
X10722611Y-16862984D02*
X10722611Y-16662984D01*
X10808325Y-16862984D02*
X10808325Y-16758222D01*
X10808325Y-16758222D02*
X10798801Y-16739174D01*
X10798801Y-16739174D02*
X10779753Y-16729650D01*
X10779753Y-16729650D02*
X10751182Y-16729650D01*
X10751182Y-16729650D02*
X10732134Y-16739174D01*
X10732134Y-16739174D02*
X10722611Y-16748698D01*
X10932134Y-16862984D02*
X10913087Y-16853460D01*
X10913087Y-16853460D02*
X10903563Y-16843936D01*
X10903563Y-16843936D02*
X10894039Y-16824889D01*
X10894039Y-16824889D02*
X10894039Y-16767746D01*
X10894039Y-16767746D02*
X10903563Y-16748698D01*
X10903563Y-16748698D02*
X10913087Y-16739174D01*
X10913087Y-16739174D02*
X10932134Y-16729650D01*
X10932134Y-16729650D02*
X10960706Y-16729650D01*
X10960706Y-16729650D02*
X10979753Y-16739174D01*
X10979753Y-16739174D02*
X10989277Y-16748698D01*
X10989277Y-16748698D02*
X10998801Y-16767746D01*
X10998801Y-16767746D02*
X10998801Y-16824889D01*
X10998801Y-16824889D02*
X10989277Y-16843936D01*
X10989277Y-16843936D02*
X10979753Y-16853460D01*
X10979753Y-16853460D02*
X10960706Y-16862984D01*
X10960706Y-16862984D02*
X10932134Y-16862984D01*
X11113087Y-16862984D02*
X11094039Y-16853460D01*
X11094039Y-16853460D02*
X11084515Y-16834412D01*
X11084515Y-16834412D02*
X11084515Y-16662984D01*
X11265468Y-16853460D02*
X11246420Y-16862984D01*
X11246420Y-16862984D02*
X11208325Y-16862984D01*
X11208325Y-16862984D02*
X11189277Y-16853460D01*
X11189277Y-16853460D02*
X11179753Y-16834412D01*
X11179753Y-16834412D02*
X11179753Y-16758222D01*
X11179753Y-16758222D02*
X11189277Y-16739174D01*
X11189277Y-16739174D02*
X11208325Y-16729650D01*
X11208325Y-16729650D02*
X11246420Y-16729650D01*
X11246420Y-16729650D02*
X11265468Y-16739174D01*
X11265468Y-16739174D02*
X11274991Y-16758222D01*
X11274991Y-16758222D02*
X11274991Y-16777270D01*
X11274991Y-16777270D02*
X11179753Y-16796317D01*
X11351182Y-16853460D02*
X11370230Y-16862984D01*
X11370230Y-16862984D02*
X11408325Y-16862984D01*
X11408325Y-16862984D02*
X11427372Y-16853460D01*
X11427372Y-16853460D02*
X11436896Y-16834412D01*
X11436896Y-16834412D02*
X11436896Y-16824889D01*
X11436896Y-16824889D02*
X11427372Y-16805841D01*
X11427372Y-16805841D02*
X11408325Y-16796317D01*
X11408325Y-16796317D02*
X11379753Y-16796317D01*
X11379753Y-16796317D02*
X11360706Y-16786793D01*
X11360706Y-16786793D02*
X11351182Y-16767746D01*
X11351182Y-16767746D02*
X11351182Y-16758222D01*
X11351182Y-16758222D02*
X11360706Y-16739174D01*
X11360706Y-16739174D02*
X11379753Y-16729650D01*
X11379753Y-16729650D02*
X11408325Y-16729650D01*
X11408325Y-16729650D02*
X11427372Y-16739174D01*
X11503563Y-16939174D02*
X11513087Y-16929650D01*
X11513087Y-16929650D02*
X11532134Y-16901079D01*
X11532134Y-16901079D02*
X11541658Y-16882031D01*
X11541658Y-16882031D02*
X11551182Y-16853460D01*
X11551182Y-16853460D02*
X11560706Y-16805841D01*
X11560706Y-16805841D02*
X11560706Y-16767746D01*
X11560706Y-16767746D02*
X11551182Y-16720127D01*
X11551182Y-16720127D02*
X11541658Y-16691555D01*
X11541658Y-16691555D02*
X11532134Y-16672508D01*
X11532134Y-16672508D02*
X11513087Y-16643936D01*
X11513087Y-16643936D02*
X11503563Y-16634412D01*
D12*
X6728500Y-17035500D02*
G75*
G02*
X6648500Y-17035500I-40000J0D01*
G01*
X6648500Y-17035500D02*
G75*
G02*
X6728500Y-17035500I40000J0D01*
G01*
D11*
X7027372Y-16926984D02*
X7046420Y-16926984D01*
X7046420Y-16926984D02*
X7065467Y-16936508D01*
X7065467Y-16936508D02*
X7074991Y-16946031D01*
X7074991Y-16946031D02*
X7084515Y-16965079D01*
X7084515Y-16965079D02*
X7094039Y-17003174D01*
X7094039Y-17003174D02*
X7094039Y-17050793D01*
X7094039Y-17050793D02*
X7084515Y-17088889D01*
X7084515Y-17088889D02*
X7074991Y-17107936D01*
X7074991Y-17107936D02*
X7065467Y-17117460D01*
X7065467Y-17117460D02*
X7046420Y-17126984D01*
X7046420Y-17126984D02*
X7027372Y-17126984D01*
X7027372Y-17126984D02*
X7008324Y-17117460D01*
X7008324Y-17117460D02*
X6998801Y-17107936D01*
X6998801Y-17107936D02*
X6989277Y-17088889D01*
X6989277Y-17088889D02*
X6979753Y-17050793D01*
X6979753Y-17050793D02*
X6979753Y-17003174D01*
X6979753Y-17003174D02*
X6989277Y-16965079D01*
X6989277Y-16965079D02*
X6998801Y-16946031D01*
X6998801Y-16946031D02*
X7008324Y-16936508D01*
X7008324Y-16936508D02*
X7027372Y-16926984D01*
X7179753Y-17107936D02*
X7189277Y-17117460D01*
X7189277Y-17117460D02*
X7179753Y-17126984D01*
X7179753Y-17126984D02*
X7170229Y-17117460D01*
X7170229Y-17117460D02*
X7179753Y-17107936D01*
X7179753Y-17107936D02*
X7179753Y-17126984D01*
X7303562Y-17012698D02*
X7284515Y-17003174D01*
X7284515Y-17003174D02*
X7274991Y-16993650D01*
X7274991Y-16993650D02*
X7265467Y-16974603D01*
X7265467Y-16974603D02*
X7265467Y-16965079D01*
X7265467Y-16965079D02*
X7274991Y-16946031D01*
X7274991Y-16946031D02*
X7284515Y-16936508D01*
X7284515Y-16936508D02*
X7303562Y-16926984D01*
X7303562Y-16926984D02*
X7341658Y-16926984D01*
X7341658Y-16926984D02*
X7360705Y-16936508D01*
X7360705Y-16936508D02*
X7370229Y-16946031D01*
X7370229Y-16946031D02*
X7379753Y-16965079D01*
X7379753Y-16965079D02*
X7379753Y-16974603D01*
X7379753Y-16974603D02*
X7370229Y-16993650D01*
X7370229Y-16993650D02*
X7360705Y-17003174D01*
X7360705Y-17003174D02*
X7341658Y-17012698D01*
X7341658Y-17012698D02*
X7303562Y-17012698D01*
X7303562Y-17012698D02*
X7284515Y-17022222D01*
X7284515Y-17022222D02*
X7274991Y-17031746D01*
X7274991Y-17031746D02*
X7265467Y-17050793D01*
X7265467Y-17050793D02*
X7265467Y-17088889D01*
X7265467Y-17088889D02*
X7274991Y-17107936D01*
X7274991Y-17107936D02*
X7284515Y-17117460D01*
X7284515Y-17117460D02*
X7303562Y-17126984D01*
X7303562Y-17126984D02*
X7341658Y-17126984D01*
X7341658Y-17126984D02*
X7360705Y-17117460D01*
X7360705Y-17117460D02*
X7370229Y-17107936D01*
X7370229Y-17107936D02*
X7379753Y-17088889D01*
X7379753Y-17088889D02*
X7379753Y-17050793D01*
X7379753Y-17050793D02*
X7370229Y-17031746D01*
X7370229Y-17031746D02*
X7360705Y-17022222D01*
X7360705Y-17022222D02*
X7341658Y-17012698D01*
X7503562Y-16926984D02*
X7522610Y-16926984D01*
X7522610Y-16926984D02*
X7541658Y-16936508D01*
X7541658Y-16936508D02*
X7551182Y-16946031D01*
X7551182Y-16946031D02*
X7560705Y-16965079D01*
X7560705Y-16965079D02*
X7570229Y-17003174D01*
X7570229Y-17003174D02*
X7570229Y-17050793D01*
X7570229Y-17050793D02*
X7560705Y-17088889D01*
X7560705Y-17088889D02*
X7551182Y-17107936D01*
X7551182Y-17107936D02*
X7541658Y-17117460D01*
X7541658Y-17117460D02*
X7522610Y-17126984D01*
X7522610Y-17126984D02*
X7503562Y-17126984D01*
X7503562Y-17126984D02*
X7484515Y-17117460D01*
X7484515Y-17117460D02*
X7474991Y-17107936D01*
X7474991Y-17107936D02*
X7465467Y-17088889D01*
X7465467Y-17088889D02*
X7455943Y-17050793D01*
X7455943Y-17050793D02*
X7455943Y-17003174D01*
X7455943Y-17003174D02*
X7465467Y-16965079D01*
X7465467Y-16965079D02*
X7474991Y-16946031D01*
X7474991Y-16946031D02*
X7484515Y-16936508D01*
X7484515Y-16936508D02*
X7503562Y-16926984D01*
X7694039Y-16926984D02*
X7713086Y-16926984D01*
X7713086Y-16926984D02*
X7732134Y-16936508D01*
X7732134Y-16936508D02*
X7741658Y-16946031D01*
X7741658Y-16946031D02*
X7751182Y-16965079D01*
X7751182Y-16965079D02*
X7760705Y-17003174D01*
X7760705Y-17003174D02*
X7760705Y-17050793D01*
X7760705Y-17050793D02*
X7751182Y-17088889D01*
X7751182Y-17088889D02*
X7741658Y-17107936D01*
X7741658Y-17107936D02*
X7732134Y-17117460D01*
X7732134Y-17117460D02*
X7713086Y-17126984D01*
X7713086Y-17126984D02*
X7694039Y-17126984D01*
X7694039Y-17126984D02*
X7674991Y-17117460D01*
X7674991Y-17117460D02*
X7665467Y-17107936D01*
X7665467Y-17107936D02*
X7655943Y-17088889D01*
X7655943Y-17088889D02*
X7646420Y-17050793D01*
X7646420Y-17050793D02*
X7646420Y-17003174D01*
X7646420Y-17003174D02*
X7655943Y-16965079D01*
X7655943Y-16965079D02*
X7665467Y-16946031D01*
X7665467Y-16946031D02*
X7674991Y-16936508D01*
X7674991Y-16936508D02*
X7694039Y-16926984D01*
X7846420Y-17126984D02*
X7846420Y-16993650D01*
X7846420Y-17012698D02*
X7855943Y-17003174D01*
X7855943Y-17003174D02*
X7874991Y-16993650D01*
X7874991Y-16993650D02*
X7903563Y-16993650D01*
X7903563Y-16993650D02*
X7922610Y-17003174D01*
X7922610Y-17003174D02*
X7932134Y-17022222D01*
X7932134Y-17022222D02*
X7932134Y-17126984D01*
X7932134Y-17022222D02*
X7941658Y-17003174D01*
X7941658Y-17003174D02*
X7960705Y-16993650D01*
X7960705Y-16993650D02*
X7989277Y-16993650D01*
X7989277Y-16993650D02*
X8008324Y-17003174D01*
X8008324Y-17003174D02*
X8017848Y-17022222D01*
X8017848Y-17022222D02*
X8017848Y-17126984D01*
X8113086Y-17126984D02*
X8113086Y-16993650D01*
X8113086Y-17012698D02*
X8122610Y-17003174D01*
X8122610Y-17003174D02*
X8141658Y-16993650D01*
X8141658Y-16993650D02*
X8170229Y-16993650D01*
X8170229Y-16993650D02*
X8189277Y-17003174D01*
X8189277Y-17003174D02*
X8198801Y-17022222D01*
X8198801Y-17022222D02*
X8198801Y-17126984D01*
X8198801Y-17022222D02*
X8208324Y-17003174D01*
X8208324Y-17003174D02*
X8227372Y-16993650D01*
X8227372Y-16993650D02*
X8255943Y-16993650D01*
X8255943Y-16993650D02*
X8274991Y-17003174D01*
X8274991Y-17003174D02*
X8284515Y-17022222D01*
X8284515Y-17022222D02*
X8284515Y-17126984D01*
X8674991Y-16917460D02*
X8503563Y-17174603D01*
X8932134Y-16926984D02*
X8951182Y-16926984D01*
X8951182Y-16926984D02*
X8970229Y-16936508D01*
X8970229Y-16936508D02*
X8979753Y-16946031D01*
X8979753Y-16946031D02*
X8989277Y-16965079D01*
X8989277Y-16965079D02*
X8998801Y-17003174D01*
X8998801Y-17003174D02*
X8998801Y-17050793D01*
X8998801Y-17050793D02*
X8989277Y-17088889D01*
X8989277Y-17088889D02*
X8979753Y-17107936D01*
X8979753Y-17107936D02*
X8970229Y-17117460D01*
X8970229Y-17117460D02*
X8951182Y-17126984D01*
X8951182Y-17126984D02*
X8932134Y-17126984D01*
X8932134Y-17126984D02*
X8913087Y-17117460D01*
X8913087Y-17117460D02*
X8903563Y-17107936D01*
X8903563Y-17107936D02*
X8894039Y-17088889D01*
X8894039Y-17088889D02*
X8884515Y-17050793D01*
X8884515Y-17050793D02*
X8884515Y-17003174D01*
X8884515Y-17003174D02*
X8894039Y-16965079D01*
X8894039Y-16965079D02*
X8903563Y-16946031D01*
X8903563Y-16946031D02*
X8913087Y-16936508D01*
X8913087Y-16936508D02*
X8932134Y-16926984D01*
X9084515Y-17107936D02*
X9094039Y-17117460D01*
X9094039Y-17117460D02*
X9084515Y-17126984D01*
X9084515Y-17126984D02*
X9074991Y-17117460D01*
X9074991Y-17117460D02*
X9084515Y-17107936D01*
X9084515Y-17107936D02*
X9084515Y-17126984D01*
X9217848Y-16926984D02*
X9236896Y-16926984D01*
X9236896Y-16926984D02*
X9255944Y-16936508D01*
X9255944Y-16936508D02*
X9265468Y-16946031D01*
X9265468Y-16946031D02*
X9274991Y-16965079D01*
X9274991Y-16965079D02*
X9284515Y-17003174D01*
X9284515Y-17003174D02*
X9284515Y-17050793D01*
X9284515Y-17050793D02*
X9274991Y-17088889D01*
X9274991Y-17088889D02*
X9265468Y-17107936D01*
X9265468Y-17107936D02*
X9255944Y-17117460D01*
X9255944Y-17117460D02*
X9236896Y-17126984D01*
X9236896Y-17126984D02*
X9217848Y-17126984D01*
X9217848Y-17126984D02*
X9198801Y-17117460D01*
X9198801Y-17117460D02*
X9189277Y-17107936D01*
X9189277Y-17107936D02*
X9179753Y-17088889D01*
X9179753Y-17088889D02*
X9170229Y-17050793D01*
X9170229Y-17050793D02*
X9170229Y-17003174D01*
X9170229Y-17003174D02*
X9179753Y-16965079D01*
X9179753Y-16965079D02*
X9189277Y-16946031D01*
X9189277Y-16946031D02*
X9198801Y-16936508D01*
X9198801Y-16936508D02*
X9217848Y-16926984D01*
X9351182Y-16926984D02*
X9474991Y-16926984D01*
X9474991Y-16926984D02*
X9408325Y-17003174D01*
X9408325Y-17003174D02*
X9436896Y-17003174D01*
X9436896Y-17003174D02*
X9455944Y-17012698D01*
X9455944Y-17012698D02*
X9465468Y-17022222D01*
X9465468Y-17022222D02*
X9474991Y-17041270D01*
X9474991Y-17041270D02*
X9474991Y-17088889D01*
X9474991Y-17088889D02*
X9465468Y-17107936D01*
X9465468Y-17107936D02*
X9455944Y-17117460D01*
X9455944Y-17117460D02*
X9436896Y-17126984D01*
X9436896Y-17126984D02*
X9379753Y-17126984D01*
X9379753Y-17126984D02*
X9360706Y-17117460D01*
X9360706Y-17117460D02*
X9351182Y-17107936D01*
X9665468Y-17126984D02*
X9551182Y-17126984D01*
X9608325Y-17126984D02*
X9608325Y-16926984D01*
X9608325Y-16926984D02*
X9589277Y-16955555D01*
X9589277Y-16955555D02*
X9570229Y-16974603D01*
X9570229Y-16974603D02*
X9551182Y-16984127D01*
X9846420Y-16926984D02*
X9751182Y-16926984D01*
X9751182Y-16926984D02*
X9741658Y-17022222D01*
X9741658Y-17022222D02*
X9751182Y-17012698D01*
X9751182Y-17012698D02*
X9770229Y-17003174D01*
X9770229Y-17003174D02*
X9817849Y-17003174D01*
X9817849Y-17003174D02*
X9836896Y-17012698D01*
X9836896Y-17012698D02*
X9846420Y-17022222D01*
X9846420Y-17022222D02*
X9855944Y-17041270D01*
X9855944Y-17041270D02*
X9855944Y-17088889D01*
X9855944Y-17088889D02*
X9846420Y-17107936D01*
X9846420Y-17107936D02*
X9836896Y-17117460D01*
X9836896Y-17117460D02*
X9817849Y-17126984D01*
X9817849Y-17126984D02*
X9770229Y-17126984D01*
X9770229Y-17126984D02*
X9751182Y-17117460D01*
X9751182Y-17117460D02*
X9741658Y-17107936D01*
X9932134Y-16926984D02*
X9932134Y-16965079D01*
X10008325Y-16926984D02*
X10008325Y-16965079D01*
X10303563Y-17203174D02*
X10294039Y-17193650D01*
X10294039Y-17193650D02*
X10274991Y-17165079D01*
X10274991Y-17165079D02*
X10265468Y-17146031D01*
X10265468Y-17146031D02*
X10255944Y-17117460D01*
X10255944Y-17117460D02*
X10246420Y-17069841D01*
X10246420Y-17069841D02*
X10246420Y-17031746D01*
X10246420Y-17031746D02*
X10255944Y-16984127D01*
X10255944Y-16984127D02*
X10265468Y-16955555D01*
X10265468Y-16955555D02*
X10274991Y-16936508D01*
X10274991Y-16936508D02*
X10294039Y-16907936D01*
X10294039Y-16907936D02*
X10303563Y-16898412D01*
X10484515Y-17126984D02*
X10370230Y-17126984D01*
X10427372Y-17126984D02*
X10427372Y-16926984D01*
X10427372Y-16926984D02*
X10408325Y-16955555D01*
X10408325Y-16955555D02*
X10389277Y-16974603D01*
X10389277Y-16974603D02*
X10370230Y-16984127D01*
X10608325Y-16926984D02*
X10627372Y-16926984D01*
X10627372Y-16926984D02*
X10646420Y-16936508D01*
X10646420Y-16936508D02*
X10655944Y-16946031D01*
X10655944Y-16946031D02*
X10665468Y-16965079D01*
X10665468Y-16965079D02*
X10674991Y-17003174D01*
X10674991Y-17003174D02*
X10674991Y-17050793D01*
X10674991Y-17050793D02*
X10665468Y-17088889D01*
X10665468Y-17088889D02*
X10655944Y-17107936D01*
X10655944Y-17107936D02*
X10646420Y-17117460D01*
X10646420Y-17117460D02*
X10627372Y-17126984D01*
X10627372Y-17126984D02*
X10608325Y-17126984D01*
X10608325Y-17126984D02*
X10589277Y-17117460D01*
X10589277Y-17117460D02*
X10579753Y-17107936D01*
X10579753Y-17107936D02*
X10570230Y-17088889D01*
X10570230Y-17088889D02*
X10560706Y-17050793D01*
X10560706Y-17050793D02*
X10560706Y-17003174D01*
X10560706Y-17003174D02*
X10570230Y-16965079D01*
X10570230Y-16965079D02*
X10579753Y-16946031D01*
X10579753Y-16946031D02*
X10589277Y-16936508D01*
X10589277Y-16936508D02*
X10608325Y-16926984D01*
X10913087Y-17126984D02*
X10913087Y-16926984D01*
X10998801Y-17126984D02*
X10998801Y-17022222D01*
X10998801Y-17022222D02*
X10989277Y-17003174D01*
X10989277Y-17003174D02*
X10970230Y-16993650D01*
X10970230Y-16993650D02*
X10941658Y-16993650D01*
X10941658Y-16993650D02*
X10922611Y-17003174D01*
X10922611Y-17003174D02*
X10913087Y-17012698D01*
X11122611Y-17126984D02*
X11103563Y-17117460D01*
X11103563Y-17117460D02*
X11094039Y-17107936D01*
X11094039Y-17107936D02*
X11084515Y-17088889D01*
X11084515Y-17088889D02*
X11084515Y-17031746D01*
X11084515Y-17031746D02*
X11094039Y-17012698D01*
X11094039Y-17012698D02*
X11103563Y-17003174D01*
X11103563Y-17003174D02*
X11122611Y-16993650D01*
X11122611Y-16993650D02*
X11151182Y-16993650D01*
X11151182Y-16993650D02*
X11170230Y-17003174D01*
X11170230Y-17003174D02*
X11179753Y-17012698D01*
X11179753Y-17012698D02*
X11189277Y-17031746D01*
X11189277Y-17031746D02*
X11189277Y-17088889D01*
X11189277Y-17088889D02*
X11179753Y-17107936D01*
X11179753Y-17107936D02*
X11170230Y-17117460D01*
X11170230Y-17117460D02*
X11151182Y-17126984D01*
X11151182Y-17126984D02*
X11122611Y-17126984D01*
X11303563Y-17126984D02*
X11284515Y-17117460D01*
X11284515Y-17117460D02*
X11274991Y-17098412D01*
X11274991Y-17098412D02*
X11274991Y-16926984D01*
X11455944Y-17117460D02*
X11436896Y-17126984D01*
X11436896Y-17126984D02*
X11398801Y-17126984D01*
X11398801Y-17126984D02*
X11379753Y-17117460D01*
X11379753Y-17117460D02*
X11370230Y-17098412D01*
X11370230Y-17098412D02*
X11370230Y-17022222D01*
X11370230Y-17022222D02*
X11379753Y-17003174D01*
X11379753Y-17003174D02*
X11398801Y-16993650D01*
X11398801Y-16993650D02*
X11436896Y-16993650D01*
X11436896Y-16993650D02*
X11455944Y-17003174D01*
X11455944Y-17003174D02*
X11465468Y-17022222D01*
X11465468Y-17022222D02*
X11465468Y-17041270D01*
X11465468Y-17041270D02*
X11370230Y-17060317D01*
X11541658Y-17117460D02*
X11560706Y-17126984D01*
X11560706Y-17126984D02*
X11598801Y-17126984D01*
X11598801Y-17126984D02*
X11617849Y-17117460D01*
X11617849Y-17117460D02*
X11627372Y-17098412D01*
X11627372Y-17098412D02*
X11627372Y-17088889D01*
X11627372Y-17088889D02*
X11617849Y-17069841D01*
X11617849Y-17069841D02*
X11598801Y-17060317D01*
X11598801Y-17060317D02*
X11570230Y-17060317D01*
X11570230Y-17060317D02*
X11551182Y-17050793D01*
X11551182Y-17050793D02*
X11541658Y-17031746D01*
X11541658Y-17031746D02*
X11541658Y-17022222D01*
X11541658Y-17022222D02*
X11551182Y-17003174D01*
X11551182Y-17003174D02*
X11570230Y-16993650D01*
X11570230Y-16993650D02*
X11598801Y-16993650D01*
X11598801Y-16993650D02*
X11617849Y-17003174D01*
X11694039Y-17203174D02*
X11703563Y-17193650D01*
X11703563Y-17193650D02*
X11722611Y-17165079D01*
X11722611Y-17165079D02*
X11732134Y-17146031D01*
X11732134Y-17146031D02*
X11741658Y-17117460D01*
X11741658Y-17117460D02*
X11751182Y-17069841D01*
X11751182Y-17069841D02*
X11751182Y-17031746D01*
X11751182Y-17031746D02*
X11741658Y-16984127D01*
X11741658Y-16984127D02*
X11732134Y-16955555D01*
X11732134Y-16955555D02*
X11722611Y-16936508D01*
X11722611Y-16936508D02*
X11703563Y-16907936D01*
X11703563Y-16907936D02*
X11694039Y-16898412D01*
D12*
X6683500Y-17254500D02*
X6683500Y-17344500D01*
X6638500Y-17299500D02*
X6728500Y-17299500D01*
D11*
X7027372Y-17190984D02*
X7046420Y-17190984D01*
X7046420Y-17190984D02*
X7065467Y-17200508D01*
X7065467Y-17200508D02*
X7074991Y-17210031D01*
X7074991Y-17210031D02*
X7084515Y-17229079D01*
X7084515Y-17229079D02*
X7094039Y-17267174D01*
X7094039Y-17267174D02*
X7094039Y-17314793D01*
X7094039Y-17314793D02*
X7084515Y-17352889D01*
X7084515Y-17352889D02*
X7074991Y-17371936D01*
X7074991Y-17371936D02*
X7065467Y-17381460D01*
X7065467Y-17381460D02*
X7046420Y-17390984D01*
X7046420Y-17390984D02*
X7027372Y-17390984D01*
X7027372Y-17390984D02*
X7008324Y-17381460D01*
X7008324Y-17381460D02*
X6998801Y-17371936D01*
X6998801Y-17371936D02*
X6989277Y-17352889D01*
X6989277Y-17352889D02*
X6979753Y-17314793D01*
X6979753Y-17314793D02*
X6979753Y-17267174D01*
X6979753Y-17267174D02*
X6989277Y-17229079D01*
X6989277Y-17229079D02*
X6998801Y-17210031D01*
X6998801Y-17210031D02*
X7008324Y-17200508D01*
X7008324Y-17200508D02*
X7027372Y-17190984D01*
X7179753Y-17371936D02*
X7189277Y-17381460D01*
X7189277Y-17381460D02*
X7179753Y-17390984D01*
X7179753Y-17390984D02*
X7170229Y-17381460D01*
X7170229Y-17381460D02*
X7179753Y-17371936D01*
X7179753Y-17371936D02*
X7179753Y-17390984D01*
X7284515Y-17390984D02*
X7322610Y-17390984D01*
X7322610Y-17390984D02*
X7341658Y-17381460D01*
X7341658Y-17381460D02*
X7351182Y-17371936D01*
X7351182Y-17371936D02*
X7370229Y-17343365D01*
X7370229Y-17343365D02*
X7379753Y-17305270D01*
X7379753Y-17305270D02*
X7379753Y-17229079D01*
X7379753Y-17229079D02*
X7370229Y-17210031D01*
X7370229Y-17210031D02*
X7360705Y-17200508D01*
X7360705Y-17200508D02*
X7341658Y-17190984D01*
X7341658Y-17190984D02*
X7303562Y-17190984D01*
X7303562Y-17190984D02*
X7284515Y-17200508D01*
X7284515Y-17200508D02*
X7274991Y-17210031D01*
X7274991Y-17210031D02*
X7265467Y-17229079D01*
X7265467Y-17229079D02*
X7265467Y-17276698D01*
X7265467Y-17276698D02*
X7274991Y-17295746D01*
X7274991Y-17295746D02*
X7284515Y-17305270D01*
X7284515Y-17305270D02*
X7303562Y-17314793D01*
X7303562Y-17314793D02*
X7341658Y-17314793D01*
X7341658Y-17314793D02*
X7360705Y-17305270D01*
X7360705Y-17305270D02*
X7370229Y-17295746D01*
X7370229Y-17295746D02*
X7379753Y-17276698D01*
X7503562Y-17190984D02*
X7522610Y-17190984D01*
X7522610Y-17190984D02*
X7541658Y-17200508D01*
X7541658Y-17200508D02*
X7551182Y-17210031D01*
X7551182Y-17210031D02*
X7560705Y-17229079D01*
X7560705Y-17229079D02*
X7570229Y-17267174D01*
X7570229Y-17267174D02*
X7570229Y-17314793D01*
X7570229Y-17314793D02*
X7560705Y-17352889D01*
X7560705Y-17352889D02*
X7551182Y-17371936D01*
X7551182Y-17371936D02*
X7541658Y-17381460D01*
X7541658Y-17381460D02*
X7522610Y-17390984D01*
X7522610Y-17390984D02*
X7503562Y-17390984D01*
X7503562Y-17390984D02*
X7484515Y-17381460D01*
X7484515Y-17381460D02*
X7474991Y-17371936D01*
X7474991Y-17371936D02*
X7465467Y-17352889D01*
X7465467Y-17352889D02*
X7455943Y-17314793D01*
X7455943Y-17314793D02*
X7455943Y-17267174D01*
X7455943Y-17267174D02*
X7465467Y-17229079D01*
X7465467Y-17229079D02*
X7474991Y-17210031D01*
X7474991Y-17210031D02*
X7484515Y-17200508D01*
X7484515Y-17200508D02*
X7503562Y-17190984D01*
X7694039Y-17190984D02*
X7713086Y-17190984D01*
X7713086Y-17190984D02*
X7732134Y-17200508D01*
X7732134Y-17200508D02*
X7741658Y-17210031D01*
X7741658Y-17210031D02*
X7751182Y-17229079D01*
X7751182Y-17229079D02*
X7760705Y-17267174D01*
X7760705Y-17267174D02*
X7760705Y-17314793D01*
X7760705Y-17314793D02*
X7751182Y-17352889D01*
X7751182Y-17352889D02*
X7741658Y-17371936D01*
X7741658Y-17371936D02*
X7732134Y-17381460D01*
X7732134Y-17381460D02*
X7713086Y-17390984D01*
X7713086Y-17390984D02*
X7694039Y-17390984D01*
X7694039Y-17390984D02*
X7674991Y-17381460D01*
X7674991Y-17381460D02*
X7665467Y-17371936D01*
X7665467Y-17371936D02*
X7655943Y-17352889D01*
X7655943Y-17352889D02*
X7646420Y-17314793D01*
X7646420Y-17314793D02*
X7646420Y-17267174D01*
X7646420Y-17267174D02*
X7655943Y-17229079D01*
X7655943Y-17229079D02*
X7665467Y-17210031D01*
X7665467Y-17210031D02*
X7674991Y-17200508D01*
X7674991Y-17200508D02*
X7694039Y-17190984D01*
X7846420Y-17390984D02*
X7846420Y-17257650D01*
X7846420Y-17276698D02*
X7855943Y-17267174D01*
X7855943Y-17267174D02*
X7874991Y-17257650D01*
X7874991Y-17257650D02*
X7903563Y-17257650D01*
X7903563Y-17257650D02*
X7922610Y-17267174D01*
X7922610Y-17267174D02*
X7932134Y-17286222D01*
X7932134Y-17286222D02*
X7932134Y-17390984D01*
X7932134Y-17286222D02*
X7941658Y-17267174D01*
X7941658Y-17267174D02*
X7960705Y-17257650D01*
X7960705Y-17257650D02*
X7989277Y-17257650D01*
X7989277Y-17257650D02*
X8008324Y-17267174D01*
X8008324Y-17267174D02*
X8017848Y-17286222D01*
X8017848Y-17286222D02*
X8017848Y-17390984D01*
X8113086Y-17390984D02*
X8113086Y-17257650D01*
X8113086Y-17276698D02*
X8122610Y-17267174D01*
X8122610Y-17267174D02*
X8141658Y-17257650D01*
X8141658Y-17257650D02*
X8170229Y-17257650D01*
X8170229Y-17257650D02*
X8189277Y-17267174D01*
X8189277Y-17267174D02*
X8198801Y-17286222D01*
X8198801Y-17286222D02*
X8198801Y-17390984D01*
X8198801Y-17286222D02*
X8208324Y-17267174D01*
X8208324Y-17267174D02*
X8227372Y-17257650D01*
X8227372Y-17257650D02*
X8255943Y-17257650D01*
X8255943Y-17257650D02*
X8274991Y-17267174D01*
X8274991Y-17267174D02*
X8284515Y-17286222D01*
X8284515Y-17286222D02*
X8284515Y-17390984D01*
X8674991Y-17181460D02*
X8503563Y-17438603D01*
X8932134Y-17190984D02*
X8951182Y-17190984D01*
X8951182Y-17190984D02*
X8970229Y-17200508D01*
X8970229Y-17200508D02*
X8979753Y-17210031D01*
X8979753Y-17210031D02*
X8989277Y-17229079D01*
X8989277Y-17229079D02*
X8998801Y-17267174D01*
X8998801Y-17267174D02*
X8998801Y-17314793D01*
X8998801Y-17314793D02*
X8989277Y-17352889D01*
X8989277Y-17352889D02*
X8979753Y-17371936D01*
X8979753Y-17371936D02*
X8970229Y-17381460D01*
X8970229Y-17381460D02*
X8951182Y-17390984D01*
X8951182Y-17390984D02*
X8932134Y-17390984D01*
X8932134Y-17390984D02*
X8913087Y-17381460D01*
X8913087Y-17381460D02*
X8903563Y-17371936D01*
X8903563Y-17371936D02*
X8894039Y-17352889D01*
X8894039Y-17352889D02*
X8884515Y-17314793D01*
X8884515Y-17314793D02*
X8884515Y-17267174D01*
X8884515Y-17267174D02*
X8894039Y-17229079D01*
X8894039Y-17229079D02*
X8903563Y-17210031D01*
X8903563Y-17210031D02*
X8913087Y-17200508D01*
X8913087Y-17200508D02*
X8932134Y-17190984D01*
X9084515Y-17371936D02*
X9094039Y-17381460D01*
X9094039Y-17381460D02*
X9084515Y-17390984D01*
X9084515Y-17390984D02*
X9074991Y-17381460D01*
X9074991Y-17381460D02*
X9084515Y-17371936D01*
X9084515Y-17371936D02*
X9084515Y-17390984D01*
X9217848Y-17190984D02*
X9236896Y-17190984D01*
X9236896Y-17190984D02*
X9255944Y-17200508D01*
X9255944Y-17200508D02*
X9265468Y-17210031D01*
X9265468Y-17210031D02*
X9274991Y-17229079D01*
X9274991Y-17229079D02*
X9284515Y-17267174D01*
X9284515Y-17267174D02*
X9284515Y-17314793D01*
X9284515Y-17314793D02*
X9274991Y-17352889D01*
X9274991Y-17352889D02*
X9265468Y-17371936D01*
X9265468Y-17371936D02*
X9255944Y-17381460D01*
X9255944Y-17381460D02*
X9236896Y-17390984D01*
X9236896Y-17390984D02*
X9217848Y-17390984D01*
X9217848Y-17390984D02*
X9198801Y-17381460D01*
X9198801Y-17381460D02*
X9189277Y-17371936D01*
X9189277Y-17371936D02*
X9179753Y-17352889D01*
X9179753Y-17352889D02*
X9170229Y-17314793D01*
X9170229Y-17314793D02*
X9170229Y-17267174D01*
X9170229Y-17267174D02*
X9179753Y-17229079D01*
X9179753Y-17229079D02*
X9189277Y-17210031D01*
X9189277Y-17210031D02*
X9198801Y-17200508D01*
X9198801Y-17200508D02*
X9217848Y-17190984D01*
X9351182Y-17190984D02*
X9474991Y-17190984D01*
X9474991Y-17190984D02*
X9408325Y-17267174D01*
X9408325Y-17267174D02*
X9436896Y-17267174D01*
X9436896Y-17267174D02*
X9455944Y-17276698D01*
X9455944Y-17276698D02*
X9465468Y-17286222D01*
X9465468Y-17286222D02*
X9474991Y-17305270D01*
X9474991Y-17305270D02*
X9474991Y-17352889D01*
X9474991Y-17352889D02*
X9465468Y-17371936D01*
X9465468Y-17371936D02*
X9455944Y-17381460D01*
X9455944Y-17381460D02*
X9436896Y-17390984D01*
X9436896Y-17390984D02*
X9379753Y-17390984D01*
X9379753Y-17390984D02*
X9360706Y-17381460D01*
X9360706Y-17381460D02*
X9351182Y-17371936D01*
X9655944Y-17190984D02*
X9560706Y-17190984D01*
X9560706Y-17190984D02*
X9551182Y-17286222D01*
X9551182Y-17286222D02*
X9560706Y-17276698D01*
X9560706Y-17276698D02*
X9579753Y-17267174D01*
X9579753Y-17267174D02*
X9627372Y-17267174D01*
X9627372Y-17267174D02*
X9646420Y-17276698D01*
X9646420Y-17276698D02*
X9655944Y-17286222D01*
X9655944Y-17286222D02*
X9665468Y-17305270D01*
X9665468Y-17305270D02*
X9665468Y-17352889D01*
X9665468Y-17352889D02*
X9655944Y-17371936D01*
X9655944Y-17371936D02*
X9646420Y-17381460D01*
X9646420Y-17381460D02*
X9627372Y-17390984D01*
X9627372Y-17390984D02*
X9579753Y-17390984D01*
X9579753Y-17390984D02*
X9560706Y-17381460D01*
X9560706Y-17381460D02*
X9551182Y-17371936D01*
X9836896Y-17257650D02*
X9836896Y-17390984D01*
X9789277Y-17181460D02*
X9741658Y-17324317D01*
X9741658Y-17324317D02*
X9865468Y-17324317D01*
X9932134Y-17190984D02*
X9932134Y-17229079D01*
X10008325Y-17190984D02*
X10008325Y-17229079D01*
X10303563Y-17467174D02*
X10294039Y-17457650D01*
X10294039Y-17457650D02*
X10274991Y-17429079D01*
X10274991Y-17429079D02*
X10265468Y-17410031D01*
X10265468Y-17410031D02*
X10255944Y-17381460D01*
X10255944Y-17381460D02*
X10246420Y-17333841D01*
X10246420Y-17333841D02*
X10246420Y-17295746D01*
X10246420Y-17295746D02*
X10255944Y-17248127D01*
X10255944Y-17248127D02*
X10265468Y-17219555D01*
X10265468Y-17219555D02*
X10274991Y-17200508D01*
X10274991Y-17200508D02*
X10294039Y-17171936D01*
X10294039Y-17171936D02*
X10303563Y-17162412D01*
X10360706Y-17190984D02*
X10494039Y-17190984D01*
X10494039Y-17190984D02*
X10408325Y-17390984D01*
X10674991Y-17390984D02*
X10560706Y-17390984D01*
X10617849Y-17390984D02*
X10617849Y-17190984D01*
X10617849Y-17190984D02*
X10598801Y-17219555D01*
X10598801Y-17219555D02*
X10579753Y-17238603D01*
X10579753Y-17238603D02*
X10560706Y-17248127D01*
X10913087Y-17390984D02*
X10913087Y-17190984D01*
X10998801Y-17390984D02*
X10998801Y-17286222D01*
X10998801Y-17286222D02*
X10989277Y-17267174D01*
X10989277Y-17267174D02*
X10970230Y-17257650D01*
X10970230Y-17257650D02*
X10941658Y-17257650D01*
X10941658Y-17257650D02*
X10922611Y-17267174D01*
X10922611Y-17267174D02*
X10913087Y-17276698D01*
X11122611Y-17390984D02*
X11103563Y-17381460D01*
X11103563Y-17381460D02*
X11094039Y-17371936D01*
X11094039Y-17371936D02*
X11084515Y-17352889D01*
X11084515Y-17352889D02*
X11084515Y-17295746D01*
X11084515Y-17295746D02*
X11094039Y-17276698D01*
X11094039Y-17276698D02*
X11103563Y-17267174D01*
X11103563Y-17267174D02*
X11122611Y-17257650D01*
X11122611Y-17257650D02*
X11151182Y-17257650D01*
X11151182Y-17257650D02*
X11170230Y-17267174D01*
X11170230Y-17267174D02*
X11179753Y-17276698D01*
X11179753Y-17276698D02*
X11189277Y-17295746D01*
X11189277Y-17295746D02*
X11189277Y-17352889D01*
X11189277Y-17352889D02*
X11179753Y-17371936D01*
X11179753Y-17371936D02*
X11170230Y-17381460D01*
X11170230Y-17381460D02*
X11151182Y-17390984D01*
X11151182Y-17390984D02*
X11122611Y-17390984D01*
X11303563Y-17390984D02*
X11284515Y-17381460D01*
X11284515Y-17381460D02*
X11274991Y-17362412D01*
X11274991Y-17362412D02*
X11274991Y-17190984D01*
X11455944Y-17381460D02*
X11436896Y-17390984D01*
X11436896Y-17390984D02*
X11398801Y-17390984D01*
X11398801Y-17390984D02*
X11379753Y-17381460D01*
X11379753Y-17381460D02*
X11370230Y-17362412D01*
X11370230Y-17362412D02*
X11370230Y-17286222D01*
X11370230Y-17286222D02*
X11379753Y-17267174D01*
X11379753Y-17267174D02*
X11398801Y-17257650D01*
X11398801Y-17257650D02*
X11436896Y-17257650D01*
X11436896Y-17257650D02*
X11455944Y-17267174D01*
X11455944Y-17267174D02*
X11465468Y-17286222D01*
X11465468Y-17286222D02*
X11465468Y-17305270D01*
X11465468Y-17305270D02*
X11370230Y-17324317D01*
X11541658Y-17381460D02*
X11560706Y-17390984D01*
X11560706Y-17390984D02*
X11598801Y-17390984D01*
X11598801Y-17390984D02*
X11617849Y-17381460D01*
X11617849Y-17381460D02*
X11627372Y-17362412D01*
X11627372Y-17362412D02*
X11627372Y-17352889D01*
X11627372Y-17352889D02*
X11617849Y-17333841D01*
X11617849Y-17333841D02*
X11598801Y-17324317D01*
X11598801Y-17324317D02*
X11570230Y-17324317D01*
X11570230Y-17324317D02*
X11551182Y-17314793D01*
X11551182Y-17314793D02*
X11541658Y-17295746D01*
X11541658Y-17295746D02*
X11541658Y-17286222D01*
X11541658Y-17286222D02*
X11551182Y-17267174D01*
X11551182Y-17267174D02*
X11570230Y-17257650D01*
X11570230Y-17257650D02*
X11598801Y-17257650D01*
X11598801Y-17257650D02*
X11617849Y-17267174D01*
X11694039Y-17467174D02*
X11703563Y-17457650D01*
X11703563Y-17457650D02*
X11722611Y-17429079D01*
X11722611Y-17429079D02*
X11732134Y-17410031D01*
X11732134Y-17410031D02*
X11741658Y-17381460D01*
X11741658Y-17381460D02*
X11751182Y-17333841D01*
X11751182Y-17333841D02*
X11751182Y-17295746D01*
X11751182Y-17295746D02*
X11741658Y-17248127D01*
X11741658Y-17248127D02*
X11732134Y-17219555D01*
X11732134Y-17219555D02*
X11722611Y-17200508D01*
X11722611Y-17200508D02*
X11703563Y-17171936D01*
X11703563Y-17171936D02*
X11694039Y-17162412D01*
M02*
